<?xml version="1.0" encoding="UTF-8"?><svg xmlns="http://www.w3.org/2000/svg" xmlns:xlink="http://www.w3.org/1999/xlink" viewBox="0 0 1502.24 1351.82"><defs><style>.cls-1{fill:url(#_Íîâûé_îáðàçåö_ãðàäèåíòà_10-2);}.cls-2{fill:url(#_Íîâûé_îáðàçåö_ãðàäèåíòà_9-20);}.cls-3,.cls-4{fill:#b7d972;}.cls-5{fill:#e87b50;}.cls-5,.cls-6,.cls-4{mix-blend-mode:multiply;opacity:.3;}.cls-7{fill:url(#_Íîâûé_îáðàçåö_ãðàäèåíòà_9-42);}.cls-8{fill:url(#_Íîâûé_îáðàçåö_ãðàäèåíòà_7-18);}.cls-9{fill:url(#_Íîâûé_îáðàçåö_ãðàäèåíòà_7-19);}.cls-10{fill:url(#_Íîâûé_îáðàçåö_ãðàäèåíòà_7-20);}.cls-11{fill:url(#_Íîâûé_îáðàçåö_ãðàäèåíòà_7-6);}.cls-12{fill:url(#_Íîâûé_îáðàçåö_ãðàäèåíòà_7-4);}.cls-13{fill:url(#_Íîâûé_îáðàçåö_ãðàäèåíòà_7-12);}.cls-14{fill:url(#_Íîâûé_îáðàçåö_ãðàäèåíòà_10-4);}.cls-15{fill:url(#_Íîâûé_îáðàçåö_ãðàäèåíòà_9-8);}.cls-16{fill:#fff;}.cls-17{fill:url(#_Íîâûé_îáðàçåö_ãðàäèåíòà_9-19);}.cls-18{fill:url(#_Íîâûé_îáðàçåö_ãðàäèåíòà_9-34);}.cls-19{fill:url(#_Íîâûé_îáðàçåö_ãðàäèåíòà_7-10);}.cls-20{fill:url(#_Íîâûé_îáðàçåö_ãðàäèåíòà_7-5);}.cls-21{fill:url(#_Íîâûé_îáðàçåö_ãðàäèåíòà_10-7);}.cls-22{fill:url(#_Íîâûé_îáðàçåö_ãðàäèåíòà_9-28);}.cls-23{fill:url(#_Íîâûé_îáðàçåö_ãðàäèåíòà_9-4);}.cls-24{fill:url(#_Íîâûé_îáðàçåö_ãðàäèåíòà_10-27);}.cls-25{fill:url(#_Íîâûé_îáðàçåö_ãðàäèåíòà_7-8);}.cls-26{fill:url(#_Íîâûé_îáðàçåö_ãðàäèåíòà_9-15);}.cls-27{opacity:.6;}.cls-28{fill:url(#_Íîâûé_îáðàçåö_ãðàäèåíòà_10-18);}.cls-29{fill:url(#_Íîâûé_îáðàçåö_ãðàäèåíòà_9-45);}.cls-30{fill:url(#_Íîâûé_îáðàçåö_ãðàäèåíòà_10-15);}.cls-31{fill:url(#_Íîâûé_îáðàçåö_ãðàäèåíòà_9-40);}.cls-32{fill:url(#_Íîâûé_îáðàçåö_ãðàäèåíòà_10);}.cls-33{fill:#d19369;}.cls-34{fill:url(#_Íîâûé_îáðàçåö_ãðàäèåíòà_9-17);}.cls-35{fill:url(#_Íîâûé_îáðàçåö_ãðàäèåíòà_9-37);}.cls-36{fill:url(#_Íîâûé_îáðàçåö_ãðàäèåíòà_9-44);}.cls-37{isolation:isolate;}.cls-38{fill:url(#_Íîâûé_îáðàçåö_ãðàäèåíòà_9-6);}.cls-39{fill:url(#_Íîâûé_îáðàçåö_ãðàäèåíòà_7-16);}.cls-40{fill:url(#_Íîâûé_îáðàçåö_ãðàäèåíòà_9-41);}.cls-41{fill:url(#_Íîâûé_îáðàçåö_ãðàäèåíòà_10-5);}.cls-42{fill:url(#_Íîâûé_îáðàçåö_ãðàäèåíòà_9-22);}.cls-43{fill:url(#_Íîâûé_îáðàçåö_ãðàäèåíòà_9-11);}.cls-44{fill:url(#_Íîâûé_îáðàçåö_ãðàäèåíòà_9);}.cls-45{fill:url(#_Íîâûé_îáðàçåö_ãðàäèåíòà_9-43);}.cls-46{fill:url(#_Íîâûé_îáðàçåö_ãðàäèåíòà_9-9);}.cls-47{fill:url(#_Íîâûé_îáðàçåö_ãðàäèåíòà_10-24);}.cls-48{fill:url(#_Íîâûé_îáðàçåö_ãðàäèåíòà_7-11);}.cls-49{fill:#efac7f;}.cls-50{fill:url(#_Íîâûé_îáðàçåö_ãðàäèåíòà_9-32);}.cls-51{fill:url(#_Íîâûé_îáðàçåö_ãðàäèåíòà_7-9);}.cls-52{fill:url(#_Íîâûé_îáðàçåö_ãðàäèåíòà_9-16);}.cls-53{fill:url(#_Íîâûé_îáðàçåö_ãðàäèåíòà_7-13);}.cls-54{fill:#333;}.cls-55{fill:url(#_Íîâûé_îáðàçåö_ãðàäèåíòà_9-18);}.cls-56{fill:url(#_Íîâûé_îáðàçåö_ãðàäèåíòà_10-21);}.cls-57{fill:url(#_Íîâûé_îáðàçåö_ãðàäèåíòà_10-16);}.cls-58{fill:url(#_Íîâûé_îáðàçåö_ãðàäèåíòà_7-15);}.cls-59{fill:url(#_Íîâûé_îáðàçåö_ãðàäèåíòà_10-8);}.cls-60{fill:url(#_Íîâûé_îáðàçåö_ãðàäèåíòà_10-17);}.cls-61{fill:#473b1e;}.cls-62{fill:url(#_Íîâûé_îáðàçåö_ãðàäèåíòà_10-10);}.cls-6{fill:url(#_Íîâûé_îáðàçåö_ãðàäèåíòà_9-2);}.cls-63{fill:url(#_Íîâûé_îáðàçåö_ãðàäèåíòà_7-17);}.cls-64{fill:url(#_Íîâûé_îáðàçåö_ãðàäèåíòà_10-14);}.cls-65{fill:url(#_Íîâûé_îáðàçåö_ãðàäèåíòà_9-35);}.cls-66{fill:url(#_Íîâûé_îáðàçåö_ãðàäèåíòà_9-30);}.cls-67{fill:url(#_Íîâûé_îáðàçåö_ãðàäèåíòà_9-31);}.cls-68{fill:url(#_Íîâûé_îáðàçåö_ãðàäèåíòà_10-13);}.cls-69{fill:url(#_Íîâûé_îáðàçåö_ãðàäèåíòà_7-7);}.cls-70{fill:url(#_Íîâûé_îáðàçåö_ãðàäèåíòà_7-2);}.cls-71{fill:url(#_Íîâûé_îáðàçåö_ãðàäèåíòà_10-6);}.cls-72{fill:url(#_Íîâûé_îáðàçåö_ãðàäèåíòà_10-25);}.cls-73{fill:url(#_Íîâûé_îáðàçåö_ãðàäèåíòà_9-39);}.cls-74{fill:url(#_Íîâûé_îáðàçåö_ãðàäèåíòà_9-29);}.cls-75{fill:url(#_Íîâûé_îáðàçåö_ãðàäèåíòà_10-22);}.cls-76{fill:url(#_Íîâûé_îáðàçåö_ãðàäèåíòà_9-12);}.cls-77{fill:url(#_Íîâûé_îáðàçåö_ãðàäèåíòà_9-24);}.cls-78{fill:url(#_Íîâûé_îáðàçåö_ãðàäèåíòà_10-19);}.cls-79{fill:url(#_Íîâûé_îáðàçåö_ãðàäèåíòà_10-3);}.cls-80{fill:url(#_Íîâûé_îáðàçåö_ãðàäèåíòà_7-3);}.cls-81{fill:url(#_Íîâûé_îáðàçåö_ãðàäèåíòà_9-14);}.cls-82{fill:url(#_Íîâûé_îáðàçåö_ãðàäèåíòà_9-21);}.cls-83{fill:url(#_Íîâûé_îáðàçåö_ãðàäèåíòà_10-11);}.cls-84{fill:url(#_Íîâûé_îáðàçåö_ãðàäèåíòà_9-10);}.cls-85{fill:url(#_Íîâûé_îáðàçåö_ãðàäèåíòà_10-26);}.cls-86{fill:url(#_Íîâûé_îáðàçåö_ãðàäèåíòà_9-3);}.cls-87{fill:url(#_Íîâûé_îáðàçåö_ãðàäèåíòà_7);}.cls-88{fill:#3cba58;opacity:.33;}.cls-89{fill:url(#_Íîâûé_îáðàçåö_ãðàäèåíòà_10-20);}.cls-90{fill:url(#_Íîâûé_îáðàçåö_ãðàäèåíòà_9-13);}.cls-91{fill:url(#_Íîâûé_îáðàçåö_ãðàäèåíòà_7-14);}.cls-92{fill:url(#_Íîâûé_îáðàçåö_ãðàäèåíòà_10-23);}.cls-93{fill:url(#linear-gradient);}.cls-94{fill:url(#_Íîâûé_îáðàçåö_ãðàäèåíòà_9-38);}.cls-95{fill:url(#_Íîâûé_îáðàçåö_ãðàäèåíòà_10-12);}.cls-96{fill:url(#_Íîâûé_îáðàçåö_ãðàäèåíòà_9-33);}.cls-97{fill:url(#_Íîâûé_îáðàçåö_ãðàäèåíòà_9-23);}.cls-98{fill:url(#_Íîâûé_îáðàçåö_ãðàäèåíòà_9-25);}.cls-99{fill:url(#_Íîâûé_îáðàçåö_ãðàäèåíòà_10-9);}.cls-100{fill:url(#_Íîâûé_îáðàçåö_ãðàäèåíòà_9-7);}.cls-101{fill:url(#_Íîâûé_îáðàçåö_ãðàäèåíòà_9-5);}.cls-102{fill:#002a24;}.cls-103{fill:url(#_Íîâûé_îáðàçåö_ãðàäèåíòà_9-26);}.cls-104{fill:url(#_Íîâûé_îáðàçåö_ãðàäèåíòà_9-36);}.cls-105{fill:url(#_Íîâûé_îáðàçåö_ãðàäèåíòà_9-27);}</style><linearGradient id="linear-gradient" x1="751.79" y1="-266.62" x2="751.79" y2="1403.56" gradientTransform="translate(1376.64 -126.79) rotate(89.93)" gradientUnits="userSpaceOnUse"><stop offset="0" stop-color="#3cba58" stop-opacity=".3"/><stop offset="1" stop-color="#fff" stop-opacity="0"/></linearGradient><linearGradient id="_Íîâûé_îáðàçåö_ãðàäèåíòà_9" x1="842.02" y1="786.8" x2="1153.23" y2="786.8" gradientUnits="userSpaceOnUse"><stop offset="0" stop-color="#53cd9f"/><stop offset="1" stop-color="#0d7a5c"/></linearGradient><linearGradient id="_Íîâûé_îáðàçåö_ãðàäèåíòà_9-2" x1="936.88" y1="788.2" y2="788.2" xlink:href="#_Íîâûé_îáðàçåö_ãðàäèåíòà_9"/><linearGradient id="_Íîâûé_îáðàçåö_ãðàäèåíòà_9-3" x1="330.3" y1="724.55" x2="646.34" y2="724.55" xlink:href="#_Íîâûé_îáðàçåö_ãðàäèåíòà_9"/><linearGradient id="_Íîâûé_îáðàçåö_ãðàäèåíòà_7" x1="1211.56" y1="-317.23" x2="523.35" y2="230.86" gradientUnits="userSpaceOnUse"><stop offset="0" stop-color="#fb9a2b"/><stop offset="1" stop-color="#e65925"/></linearGradient><linearGradient id="_Íîâûé_îáðàçåö_ãðàäèåíòà_7-2" x1="1187.09" y1="-263.61" x2="498.82" y2="284.52" xlink:href="#_Íîâûé_îáðàçåö_ãðàäèåíòà_7"/><linearGradient id="_Íîâûé_îáðàçåö_ãðàäèåíòà_10" x1="1172.6" y1="-329.78" x2="297.07" y2="283.45" gradientUnits="userSpaceOnUse"><stop offset="0" stop-color="#c7a44f"/><stop offset="1" stop-color="#609a3f"/></linearGradient><linearGradient id="_Íîâûé_îáðàçåö_ãðàäèåíòà_10-2" x1="1493.89" y1="-347.96" x2="614.47" y2="268" xlink:href="#_Íîâûé_îáðàçåö_ãðàäèåíòà_10"/><linearGradient id="_Íîâûé_îáðàçåö_ãðàäèåíòà_9-4" x1="487.95" y1="95.47" x2="553.91" y2="582.21" xlink:href="#_Íîâûé_îáðàçåö_ãðàäèåíòà_9"/><linearGradient id="_Íîâûé_îáðàçåö_ãðàäèåíòà_9-5" x1="185.86" y1="437.52" x2="251.83" y2="924.26" xlink:href="#_Íîâûé_îáðàçåö_ãðàäèåíòà_9"/><linearGradient id="_Íîâûé_îáðàçåö_ãðàäèåíòà_9-6" x1="121.11" y1="206.62" x2="187.07" y2="693.37" xlink:href="#_Íîâûé_îáðàçåö_ãðàäèåíòà_9"/><linearGradient id="_Íîâûé_îáðàçåö_ãðàäèåíòà_9-7" x1="447.66" y1="100.87" x2="513.63" y2="587.62" xlink:href="#_Íîâûé_îáðàçåö_ãðàäèåíòà_9"/><linearGradient id="_Íîâûé_îáðàçåö_ãðàäèåíòà_7-3" x1="980.27" y1="-27.16" x2="289.54" y2="522.93" xlink:href="#_Íîâûé_îáðàçåö_ãðàäèåíòà_7"/><linearGradient id="_Íîâûé_îáðàçåö_ãðàäèåíòà_10-3" x1="1336.66" y1="46.43" x2="457.67" y2="662.08" xlink:href="#_Íîâûé_îáðàçåö_ãðàäèåíòà_10"/><linearGradient id="_Íîâûé_îáðàçåö_ãðàäèåíòà_10-4" x1="1237.61" y1="-239.23" x2="360.86" y2="374.85" xlink:href="#_Íîâûé_îáðàçåö_ãðàäèåíòà_10"/><linearGradient id="_Íîâûé_îáðàçåö_ãðàäèåíòà_9-8" x1="101.95" y1="344.91" x2="167.84" y2="831.11" xlink:href="#_Íîâûé_îáðàçåö_ãðàäèåíòà_9"/><linearGradient id="_Íîâûé_îáðàçåö_ãðàäèåíòà_9-9" x1="27.72" y1="751.7" x2="93.61" y2="1237.89" xlink:href="#_Íîâûé_îáðàçåö_ãðàäèåíòà_9"/><linearGradient id="_Íîâûé_îáðàçåö_ãðàäèåíòà_9-10" x1="51.04" y1="376.28" x2="116.93" y2="862.48" xlink:href="#_Íîâûé_îáðàçåö_ãðàäèåíòà_9"/><linearGradient id="_Íîâûé_îáðàçåö_ãðàäèåíòà_7-4" x1="1019.73" y1="-441.38" x2="330.28" y2="107.7" xlink:href="#_Íîâûé_îáðàçåö_ãðàäèåíòà_7"/><linearGradient id="_Íîâûé_îáðàçåö_ãðàäèåíòà_10-5" x1="1124.7" y1="-402.39" x2="247.27" y2="212.16" xlink:href="#_Íîâûé_îáðàçåö_ãðàäèåíòà_10"/><linearGradient id="_Íîâûé_îáðàçåö_ãðàäèåíòà_10-6" x1="1027.98" y1="-541.18" x2="150.56" y2="73.37" xlink:href="#_Íîâûé_îáðàçåö_ãðàäèåíòà_10"/><linearGradient id="_Íîâûé_îáðàçåö_ãðàäèåíòà_10-7" x1="1220.5" y1="-261.67" x2="345.25" y2="351.36" xlink:href="#_Íîâûé_îáðàçåö_ãðàäèåíòà_10"/><linearGradient id="_Íîâûé_îáðàçåö_ãðàäèåíòà_10-8" x1="1239.66" y1="-232.53" x2="364.41" y2="380.5" xlink:href="#_Íîâûé_îáðàçåö_ãðàäèåíòà_10"/><linearGradient id="_Íîâûé_îáðàçåö_ãðàäèåíòà_9-11" x1="391.53" y1="108.67" x2="457.45" y2="595" xlink:href="#_Íîâûé_îáðàçåö_ãðàäèåíòà_9"/><linearGradient id="_Íîâûé_îáðàçåö_ãðàäèåíòà_9-12" x1="404.17" y1="106.93" x2="470.09" y2="593.26" xlink:href="#_Íîâûé_îáðàçåö_ãðàäèåíòà_9"/><linearGradient id="_Íîâûé_îáðàçåö_ãðàäèåíòà_9-13" x1="215.8" y1="132.6" x2="281.72" y2="618.93" xlink:href="#_Íîâûé_îáðàçåö_ãðàäèåíòà_9"/><linearGradient id="_Íîâûé_îáðàçåö_ãðàäèåíòà_9-14" x1="267.29" y1="125.63" x2="333.2" y2="611.96" xlink:href="#_Íîâûé_îáðàçåö_ãðàäèåíòà_9"/><linearGradient id="_Íîâûé_îáðàçåö_ãðàäèåíòà_7-5" x1="1166.54" y1="-369.5" x2="479.71" y2="177.48" xlink:href="#_Íîâûé_îáðàçåö_ãðàäèåíòà_7"/><linearGradient id="_Íîâûé_îáðàçåö_ãðàäèåíòà_7-6" x1="1163.9" y1="-188.5" x2="476.96" y2="358.58" xlink:href="#_Íîâûé_îáðàçåö_ãðàäèåíòà_7"/><linearGradient id="_Íîâûé_îáðàçåö_ãðàäèåíòà_10-9" x1="1358.34" y1="-214.91" x2="484.75" y2="396.95" xlink:href="#_Íîâûé_îáðàçåö_ãðàäèåíòà_10"/><linearGradient id="_Íîâûé_îáðàçåö_ãðàäèåíòà_10-10" x1="1219.42" y1="-258.6" x2="345.84" y2="353.26" xlink:href="#_Íîâûé_îáðàçåö_ãðàäèåíòà_10"/><linearGradient id="_Íîâûé_îáðàçåö_ãðàäèåíòà_10-11" x1="1373.06" y1="-330.3" x2="499.68" y2="281.42" xlink:href="#_Íîâûé_îáðàçåö_ãðàäèåíòà_10"/><linearGradient id="_Íîâûé_îáðàçåö_ãðàäèåíòà_10-12" x1="1203.47" y1="-292.68" x2="324.7" y2="322.81" xlink:href="#_Íîâûé_îáðàçåö_ãðàäèåíòà_10"/><linearGradient id="_Íîâûé_îáðàçåö_ãðàäèåíòà_9-15" x1="136.58" y1="736.73" x2="202.59" y2="1223.77" xlink:href="#_Íîâûé_îáðàçåö_ãðàäèåíòà_9"/><linearGradient id="_Íîâûé_îáðàçåö_ãðàäèåíòà_9-16" x1="119.28" y1="739.21" x2="185.28" y2="1226.25" xlink:href="#_Íîâûé_îáðàçåö_ãðàäèåíòà_9"/><linearGradient id="_Íîâûé_îáðàçåö_ãðàäèåíòà_9-17" x1="335.95" y1="116.11" x2="401.89" y2="602.67" xlink:href="#_Íîâûé_îáðàçåö_ãðàäèåíòà_9"/><linearGradient id="_Íîâûé_îáðàçåö_ãðàäèåíòà_7-7" x1="1399.23" y1="-.26" x2="711.01" y2="547.83" xlink:href="#_Íîâûé_îáðàçåö_ãðàäèåíòà_7"/><linearGradient id="_Íîâûé_îáðàçåö_ãðàäèåíòà_7-8" x1="1319.92" y1="-100.56" x2="631.71" y2="447.53" xlink:href="#_Íîâûé_îáðàçåö_ãðàäèåíòà_7"/><linearGradient id="_Íîâûé_îáðàçåö_ãðàäèåíòà_7-9" x1="1548.71" y1="188.36" x2="860.49" y2="736.45" xlink:href="#_Íîâûé_îáðàçåö_ãðàäèåíòà_7"/><linearGradient id="_Íîâûé_îáðàçåö_ãðàäèåíòà_10-13" x1="1433.72" y1="43.56" x2="558.19" y2="656.79" xlink:href="#_Íîâûé_îáðàçåö_ãðàäèåíòà_10"/><linearGradient id="_Íîâûé_îáðàçåö_ãðàäèåíòà_10-14" x1="1382.47" y1="-29.2" x2="506.95" y2="584.02" xlink:href="#_Íîâûé_îáðàçåö_ãðàäèåíòà_10"/><linearGradient id="_Íîâûé_îáðàçåö_ãðàäèåíòà_10-15" x1="1454.14" y1="69.25" x2="574.72" y2="685.2" xlink:href="#_Íîâûé_îáðàçåö_ãðàäèåíòà_10"/><linearGradient id="_Íîâûé_îáðàçåö_ãðàäèåíòà_10-16" x1="1333.56" y1="-106.04" x2="454.15" y2="509.9" xlink:href="#_Íîâûé_îáðàçåö_ãðàäèåíòà_10"/><linearGradient id="_Íîâûé_îáðàçåö_ãðàäèåíòà_9-18" x1="1363.11" y1="-23.92" x2="1429.08" y2="462.83" xlink:href="#_Íîâûé_îáðàçåö_ãðàäèåíòà_9"/><linearGradient id="_Íîâûé_îáðàçåö_ãðàäèåíòà_9-19" x1="885.01" y1="41.22" x2="950.98" y2="527.96" xlink:href="#_Íîâûé_îáðàçåö_ãðàäèåíòà_9"/><linearGradient id="_Íîâûé_îáðàçåö_ãðàäèåíòà_9-20" x1="1039.51" y1="20.24" x2="1105.48" y2="506.98" xlink:href="#_Íîâûé_îáðàçåö_ãðàäèåíòà_9"/><linearGradient id="_Íîâûé_îáðàçåö_ãðàäèåíòà_9-21" x1="1167.51" y1="2.72" x2="1233.48" y2="489.45" xlink:href="#_Íîâûé_îáðàçåö_ãðàäèåíòà_9"/><linearGradient id="_Íîâûé_îáðàçåö_ãðàäèåíòà_9-22" x1="1309.06" y1="-16.53" x2="1375.03" y2="470.23" xlink:href="#_Íîâûé_îáðàçåö_ãðàäèåíòà_9"/><linearGradient id="_Íîâûé_îáðàçåö_ãðàäèåíòà_9-23" x1="1357.94" y1="-23.04" x2="1423.91" y2="463.72" xlink:href="#_Íîâûé_îáðàçåö_ãðàäèåíòà_9"/><linearGradient id="_Íîâûé_îáðàçåö_ãðàäèåíòà_7-10" x1="1582.05" y1="228.28" x2="891.24" y2="778.43" xlink:href="#_Íîâûé_îáðàçåö_ãðàäèåíòà_7"/><linearGradient id="_Íîâûé_îáðàçåö_ãðàäèåíòà_7-11" x1="1140.34" y1="-331.36" x2="449.61" y2="218.73" xlink:href="#_Íîâûé_îáðàçåö_ãðàäèåíòà_7"/><linearGradient id="_Íîâûé_îáðàçåö_ãðàäèåíòà_10-17" x1="1338.37" y1="-97.93" x2="459.37" y2="517.72" xlink:href="#_Íîâûé_îáðàçåö_ãðàäèåíòà_10"/><linearGradient id="_Íîâûé_îáðàçåö_ãðàäèåíòà_10-18" x1="1458.32" y1="77.22" x2="581.57" y2="691.29" xlink:href="#_Íîâûé_îáðàçåö_ãðàäèåíòà_10"/><linearGradient id="_Íîâûé_îáðàçåö_ãðàäèåíòà_9-24" x1="871.58" y1="43.32" x2="937.47" y2="529.5" xlink:href="#_Íîâûé_îáðàçåö_ãðàäèåíòà_9"/><linearGradient id="_Íîâûé_îáðàçåö_ãðàäèåíòà_9-25" x1="549.35" y1="87.24" x2="615.24" y2="573.44" xlink:href="#_Íîâûé_îáðàçåö_ãðàäèåíòà_9"/><linearGradient id="_Íîâûé_îáðàçåö_ãðàäèåíòà_9-26" x1="601.05" y1="80.1" x2="666.94" y2="566.29" xlink:href="#_Íîâûé_îáðàçåö_ãðàäèåíòà_9"/><linearGradient id="_Íîâûé_îáðàçåö_ãðàäèåíòà_9-27" x1="827.13" y1="49.4" x2="893.03" y2="535.59" xlink:href="#_Íîâûé_îáðàçåö_ãðàäèåíòà_9"/><linearGradient id="_Íîâûé_îáðàçåö_ãðàäèåíòà_9-28" x1="819.81" y1="50.33" x2="885.7" y2="536.52" xlink:href="#_Íîâûé_îáðàçåö_ãðàäèåíòà_9"/><linearGradient id="_Íîâûé_îáðàçåö_ãðàäèåíòà_9-29" x1="712.46" y1="64.98" x2="778.35" y2="551.18" xlink:href="#_Íîâûé_îáðàçåö_ãðàäèåíòà_9"/><linearGradient id="_Íîâûé_îáðàçåö_ãðàäèåíòà_7-12" x1="1335.18" y1="-81.91" x2="645.73" y2="467.16" xlink:href="#_Íîâûé_îáðàçåö_ãðàäèåíòà_7"/><linearGradient id="_Íîâûé_îáðàçåö_ãðàäèåíòà_7-13" x1="1000.55" y1="-504.52" x2="311.1" y2="44.56" xlink:href="#_Íîâûé_îáðàçåö_ãðàäèåíòà_7"/><linearGradient id="_Íîâûé_îáðàçåö_ãðàäèåíòà_10-19" x1="1463.83" y1="84.27" x2="586.4" y2="698.83" xlink:href="#_Íîâûé_îáðàçåö_ãðàäèåíòà_10"/><linearGradient id="_Íîâûé_îáðàçåö_ãðàäèåíòà_10-20" x1="1509.93" y1="152.31" x2="634.68" y2="765.34" xlink:href="#_Íîâûé_îáðàçåö_ãðàäèåíòà_10"/><linearGradient id="_Íîâûé_îáðàçåö_ãðàäèåíòà_9-30" x1="1252.95" y1="-8.66" x2="1318.86" y2="477.68" xlink:href="#_Íîâûé_îáðàçåö_ãðàäèåíòà_9"/><linearGradient id="_Íîâûé_îáðàçåö_ãðàäèåíòà_9-31" x1="1077.22" y1="15.28" x2="1143.13" y2="501.61" xlink:href="#_Íîâûé_îáðàçåö_ãðàäèåíòà_9"/><linearGradient id="_Íîâûé_îáðàçåö_ãðàäèåíòà_9-32" x1="1369.27" y1="-24.5" x2="1435.19" y2="461.84" xlink:href="#_Íîâûé_îáðàçåö_ãðàäèåíòà_9"/><linearGradient id="_Íîâûé_îáðàçåö_ãðàäèåíòà_7-14" x1="1330.14" y1="-84.54" x2="643.31" y2="462.45" xlink:href="#_Íîâûé_îáðàçåö_ãðàäèåíòà_7"/><linearGradient id="_Íîâûé_îáðàçåö_ãðàäèåíòà_7-15" x1="1601.31" y1="255.86" x2="914.36" y2="802.94" xlink:href="#_Íîâûé_îáðàçåö_ãðàäèåíòà_7"/><linearGradient id="_Íîâûé_îáðàçåö_ãðàäèåíòà_7-16" x1="1375.37" y1="-28.34" x2="688.42" y2="518.73" xlink:href="#_Íîâûé_îáðàçåö_ãðàäèåíòà_7"/><linearGradient id="_Íîâûé_îáðàçåö_ãðàäèåíòà_7-17" x1="1241.65" y1="-196.01" x2="554.71" y2="351.07" xlink:href="#_Íîâûé_îáðàçåö_ãðàäèåíòà_7"/><linearGradient id="_Íîâûé_îáðàçåö_ãðàäèåíòà_10-21" x1="1490.85" y1="125.43" x2="617.26" y2="737.3" xlink:href="#_Íîâûé_îáðàçåö_ãðàäèåíòà_10"/><linearGradient id="_Íîâûé_îáðàçåö_ãðàäèåíòà_10-22" x1="1311.36" y1="-128.13" x2="437.97" y2="483.6" xlink:href="#_Íîâûé_îáðàçåö_ãðàäèåíòà_10"/><linearGradient id="_Íîâûé_îáðàçåö_ãðàäèåíòà_10-23" x1="1471.33" y1="93.84" x2="592.56" y2="709.34" xlink:href="#_Íîâûé_îáðàçåö_ãðàäèåíòà_10"/><linearGradient id="_Íîâûé_îáðàçåö_ãðàäèåíòà_9-33" x1="502.95" y1="93.05" x2="568.96" y2="580.08" xlink:href="#_Íîâûé_îáðàçåö_ãðàäèåíòà_9"/><linearGradient id="_Íîâûé_îáðàçåö_ãðàäèåíòà_9-34" x1="762.47" y1="57.64" x2="828.48" y2="544.68" xlink:href="#_Íîâûé_îáðàçåö_ãðàäèåíòà_9"/><linearGradient id="_Íîâûé_îáðàçåö_ãðàäèåíòà_9-35" x1="935.98" y1="34.29" x2="1001.99" y2="521.33" xlink:href="#_Íîâûé_îáðàçåö_ãðàäèåíòà_9"/><linearGradient id="_Íîâûé_îáðàçåö_ãðàäèåíòà_9-36" x1="970.52" y1="29.76" x2="1036.52" y2="516.8" xlink:href="#_Íîâûé_îáðàçåö_ãðàäèåíòà_9"/><linearGradient id="_Íîâûé_îáðàçåö_ãðàäèåíòà_9-37" x1="1083.65" y1="14" x2="1149.66" y2="501.04" xlink:href="#_Íîâûé_îáðàçåö_ãðàäèåíòà_9"/><linearGradient id="_Íîâûé_îáðàçåö_ãðàäèåíòà_9-38" x1="1190.11" y1="-.68" x2="1256.12" y2="486.36" xlink:href="#_Íîâûé_îáðàçåö_ãðàäèåíòà_9"/><linearGradient id="_Íîâûé_îáðàçåö_ãðàäèåíòà_7-18" x1="1410.4" y1="811.44" x2="722.19" y2="1359.53" xlink:href="#_Íîâûé_îáðàçåö_ãðàäèåíòà_7"/><linearGradient id="_Íîâûé_îáðàçåö_ãðàäèåíòà_10-24" x1="1537.34" y1="191.52" x2="661.81" y2="804.75" xlink:href="#_Íîâûé_îáðàçåö_ãðàäèåíòà_10"/><linearGradient id="_Íîâûé_îáðàçåö_ãðàäèåíòà_9-39" x1="1347.07" y1="301.43" x2="1413.04" y2="788.18" xlink:href="#_Íîâûé_îáðàçåö_ãðàäèåíòà_9"/><linearGradient id="_Íîâûé_îáðàçåö_ãðàäèåíòà_10-25" x1="1357.46" y1="691.59" x2="478.45" y2="1307.25" xlink:href="#_Íîâûé_îáðàçåö_ãðàäèåíòà_10"/><linearGradient id="_Íîâûé_îáðàçåö_ãðàäèåíòà_10-26" x1="1365.12" y1="799.94" x2="488.37" y2="1414.02" xlink:href="#_Íîâûé_îáðàçåö_ãðàäèåíòà_10"/><linearGradient id="_Íîâûé_îáðàçåö_ãðàäèåíòà_9-40" x1="1213.19" y1="378.03" x2="1279.08" y2="864.23" xlink:href="#_Íîâûé_îáðàçåö_ãðàäèåíòà_9"/><linearGradient id="_Íîâûé_îáðàçåö_ãðàäèåíòà_9-41" x1="1346.6" y1="359.82" x2="1412.49" y2="846.01" xlink:href="#_Íîâûé_îáðàçåö_ãðàäèåíòà_9"/><linearGradient id="_Íîâûé_îáðàçåö_ãðàäèåíòà_9-42" x1="1390.96" y1="353.82" x2="1456.85" y2="840.01" xlink:href="#_Íîâûé_îáðàçåö_ãðàäèåíòà_9"/><linearGradient id="_Íîâûé_îáðàçåö_ãðàäèåíòà_9-43" x1="1276.28" y1="369.4" x2="1342.17" y2="855.59" xlink:href="#_Íîâûé_îáðàçåö_ãðàäèåíòà_9"/><linearGradient id="_Íîâûé_îáðàçåö_ãðàäèåíòà_10-27" x1="1371.58" y1="809.3" x2="494.15" y2="1423.86" xlink:href="#_Íîâûé_îáðàçåö_ãðàäèåíòà_10"/><linearGradient id="_Íîâûé_îáðàçåö_ãðàäèåíòà_7-19" x1="1362.03" y1="750.84" x2="675.2" y2="1297.83" xlink:href="#_Íîâûé_îáðàçåö_ãðàäèåíòà_7"/><linearGradient id="_Íîâûé_îáðàçåö_ãðàäèåíòà_7-20" x1="1338.12" y1="640.05" x2="651.17" y2="1187.13" xlink:href="#_Íîâûé_îáðàçåö_ãðàäèåíòà_7"/><linearGradient id="_Íîâûé_îáðàçåö_ãðàäèåíòà_9-44" x1="1334.87" y1="-20.44" x2="1400.88" y2="466.6" xlink:href="#_Íîâûé_îáðàçåö_ãðàäèåíòà_9"/><linearGradient id="_Íîâûé_îáðàçåö_ãðàäèåíòà_9-45" x1="1190.73" y1="317.47" x2="1256.73" y2="804.51" xlink:href="#_Íîâûé_îáðàçåö_ãðàäèåíòà_9"/></defs><g class="cls-37"><g id="Layer_1"><ellipse class="cls-93" cx="751.79" cy="625.78" rx="556.97" ry="556.9" transform="translate(125.09 1376.8) rotate(-89.93)"/><g><ellipse class="cls-88" cx="750.13" cy="1299.32" rx="553" ry="52.5"/><g><polygon class="cls-49" points="638.3 1185.58 656.53 1278.72 643.18 1301.04 623.35 1278.78 604.52 1196.08 638.3 1185.58"/><path class="cls-3" d="M702.81,1313.73l-85.72,.29c-.41,0-.74-.33-.75-.74l-.03-7.33c0-.41,.33-.75,.74-.75l85.72-.29c.41,0,.74,.33,.75,.74l.02,7.33c0,.41-.33,.75-.74,.75Z"/><path class="cls-102" d="M620.22,1278.39l-2.81,24.54c-.35,3.03,1.35,5.77,3.56,5.76l76.85-.26c2,0,3.96-1.26,5.01-3.62,1.07-2.42,1.27-6.05-2.19-10.93-6.91-9.75-29.53-12.06-40.61-20.37l-35.8,.12c-2,0-3.7,2.02-4.01,4.76Z"/><path class="cls-3" d="M654.64,1287.78h0c-.56-.34-.76-1.28-.44-2,1.5-3.37,6.19-11.56,15.79-9.92,.55,.1,.93,.83,.84,1.6v.03c-.09,.74-.59,1.22-1.13,1.13-8.6-1.45-12.59,5.78-13.8,8.6-.26,.6-.79,.84-1.26,.56Z"/><path class="cls-3" d="M662.63,1290.91h0c-.56-.34-.76-1.28-.44-2,1.5-3.37,6.19-11.56,15.79-9.92,.55,.1,.93,.83,.84,1.6v.03c-.09,.74-.59,1.22-1.13,1.13-8.6-1.45-12.59,5.78-13.8,8.6-.26,.6-.79,.84-1.26,.56Z"/><path class="cls-3" d="M670.06,1293.83h0c-.56-.34-.76-1.28-.44-2,1.5-3.37,6.19-11.56,15.79-9.92,.55,.1,.93,.83,.84,1.6v.02c-.09,.74-.59,1.23-1.13,1.13-8.6-1.45-12.59,5.78-13.8,8.6-.26,.6-.79,.84-1.26,.56Z"/><path class="cls-5" d="M641.48,1308.62c-6.12-19.8-16.56-21.95-22.26-21.47l-1.81,15.78c-.35,3.03,1.35,5.77,3.56,5.76l20.51-.07Z"/><polygon class="cls-49" points="465.36 1211.04 426.25 1283.52 416.58 1301.04 396.47 1278.78 427.45 1198.46 465.36 1211.04"/><path class="cls-3" d="M476.21,1313.73l-85.72,.29c-.41,0-.74-.33-.75-.74l-.03-7.33c0-.41,.33-.75,.74-.75l85.72-.29c.41,0,.74,.33,.75,.74l.02,7.33c0,.41-.33,.75-.74,.75Z"/><path class="cls-102" d="M393.62,1278.39l-2.81,24.54c-.35,3.03,1.35,5.77,3.56,5.76l76.85-.26c2,0,3.96-1.26,5.01-3.62,1.07-2.42,1.27-6.05-2.19-10.93-6.91-9.75-29.53-12.06-40.61-20.37l-35.8,.12c-2,0-3.7,2.02-4.01,4.76Z"/><path class="cls-3" d="M428.04,1287.78h0c-.56-.34-.76-1.28-.44-2,1.5-3.37,6.19-11.56,15.79-9.92,.55,.1,.93,.83,.84,1.6v.03c-.09,.74-.59,1.22-1.13,1.13-8.6-1.45-12.59,5.78-13.8,8.6-.26,.6-.79,.84-1.26,.56Z"/><path class="cls-3" d="M436.03,1290.91h0c-.56-.34-.76-1.28-.44-2,1.5-3.37,6.19-11.56,15.79-9.92,.55,.1,.93,.83,.84,1.6v.03c-.09,.74-.59,1.22-1.13,1.13-8.6-1.45-12.59,5.78-13.8,8.6-.26,.6-.79,.84-1.26,.56Z"/><path class="cls-3" d="M443.46,1293.83h0c-.56-.34-.76-1.28-.44-2,1.5-3.37,6.19-11.56,15.79-9.92,.55,.1,.93,.83,.84,1.6v.02c-.09,.74-.59,1.23-1.13,1.13-8.6-1.45-12.59,5.78-13.8,8.6-.26,.6-.79,.84-1.26,.56Z"/><path class="cls-5" d="M414.88,1308.62c-6.12-19.8-16.56-21.95-22.26-21.47l-1.81,15.78c-.35,3.03,1.35,5.77,3.56,5.76l20.51-.07Z"/><path class="cls-49" d="M868.49,499.07c-.54,.51-1.44,.21-1.56-.52-.97-5.7-4.13-23.62-5.62-23.7-1.78-.1,.65,15.98-.81,16.77-1.46,.79-3.44-14.96-5.36-14.75-1.92,.2,.36,14.5-.42,14.87-.78,.37-4.43-13.09-5.63-13.65-1.2-.56,.95,14.28,.13,15-.82,.72-5.69-9.03-6.58-8.71-.88,.32-1.52,.39,3.2,25.5l2.28,9.81,6.16,7,10.52-3.78s14.49-29.48,13.82-30.66c-.64-1.12-1.75-1-10.12,6.83Z"/><path class="cls-49" d="M1140.81,837.78c.04-.75,.89-1.15,1.49-.71,4.62,3.45,19.23,14.2,20.37,13.22,1.36-1.17-11.46-11.09-10.95-12.68,.51-1.58,12.78,8.42,14.02,6.93,1.25-1.48-10.24-10.22-9.93-11.03,.31-.81,12.2,6.38,13.46,5.95,1.25-.43-10.51-9.66-10.41-10.75,.1-1.09,10.33,2.57,10.74,1.72,.41-.85,.83-1.34-19.85-16.2l-8.39-5.5-9.26-.78-5,10.04s9.81,31.37,11.11,31.75c1.24,.36,1.95-.49,2.61-11.97Z"/><path class="cls-49" d="M757.65,607.95c-.81-.53-7.94,8.14-8.6,7.23-.66-.91,4.9-15.33,3.56-15.05-1.34,.29-8.08,12.97-8.78,12.42-.7-.55,4.87-14.39,2.98-15.04-1.88-.65-7.47,14.72-8.76,13.59-1.29-1.13,4.84-16.72,3.02-17.04-1.53-.26-8.8,17.01-11.07,22.52-.29,.71-1.26,.8-1.69,.16-6.62-9.81-7.7-10.18-8.61-9.2-.95,1.02,2.3,32.96,2.3,32.96l-56.52,72.46s-61.48-79.48-74.48-83.54c-3.26-1.02-12.41-5.14-19.22-4.38l15.36,77.35c25.5,27.18,68.68,68.73,89.86,63.2,25.08-6.55,49.85-79.36,58.55-107.49h0l13.06-25.28c10.48-24.14,9.85-24.36,9.04-24.89Z"/><path class="cls-49" d="M1010.09,981.92l98.26,292.06s33.74,29.35,32.27,12.22c-.34-3.99-5.32-32.3-5.75-37.53-3.56-43.96-13.28-130.19-21.09-159.78-8.45-32.01-28.5-85.2-28.5-85.2l-75.2-21.77Z"/><path class="cls-49" d="M1078.23,1296.8l30.68-25.62,31.51,13.5-9.12,8.7-34.5,10s-13.99,.19-14.65-.14c-.66-.32-3.92-6.43-3.92-6.43Z"/><path class="cls-61" d="M1078.23,1296.8l-7.74,6.72c-3.6,3.06-.98,8.95,3.69,8.31l64.53-8.86c2.28-.31,3.87-2.42,3.56-4.71l-1.85-13.57c-41.11,19.65-56.52,17.51-62.19,12.12Z"/><g><path class="cls-49" d="M913.43,853.77s-47.32,151.04-41,171.97c4.04,13.4,79.45,224.11,80.65,223.72,1.2-.39,31.34-9.26,31.34-9.26,0,0-55.97-205.9-53.23-219.08,2.74-13.19,59.48-134.91,59.48-134.91l-77.23-32.44Z"/><path class="cls-49" d="M925.7,1262.24l20.86-36.05,35.59,1.87-5.82,11.77-30.16,22.16s-13.6,5.21-14.36,5.13c-.76-.08-6.12-4.88-6.12-4.88Z"/><path class="cls-61" d="M925.7,1262.24l-5.18,9.35c-2.42,4.28,2.22,9.1,6.56,6.79l59.9-31.85c2.11-1.12,2.92-3.76,1.8-5.88l-6.63-12.6c-33.18,33.97-49,37.42-56.45,34.19Z"/><path class="cls-49" d="M931.18,1021.12s25.74,78.75,42.61,179.47l-54.44-117.98,11.83-61.49Z"/></g><g><path class="cls-61" d="M957.01,616.35s-31.09-15.62-24.15-59.82c2.19-13.94,15.3-18.76,13.01-37.31-2.29-18.55-8.23-41.32,10.82-62.32,19.05-21,36.6-23.48,60.43-23.84,24.85-.38,68.13,16.71,78.56,47.01,10.43,30.3,48.93,4.26,89.57,32.87,40.64,28.61,28.42,74.15,17.87,97.63-32.5,72.32-91.97,84.03-163.9,66.15-71.92-17.88-12.88-30.68-13.53-31.8-.66-1.13-68.68-28.56-68.68-28.56Z"/><g><path class="cls-49" d="M1002.51,565.92l-2.14-25.61,28.76,2.2,8.07,31.7c.98,3.76-10.93,5.62-14.44,7.25-4.08,1.9-7.88-8.5-14.22-9.32-3.2-.42-5.69-2.99-6.04-6.22Z"/><g class="cls-27"><path class="cls-33" d="M1001.86,558.09l-1.48-17.78,29.59,5.32,1.68,6.5c-5.98,3.22-17.99,7.79-29.79,5.96Z"/></g><path class="cls-49" d="M968.57,521.6c-1.08-6.76-.92-13.68-.32-19.62,.13-1.27,.18-2.55,.21-3.83,.12-5.17,1.2-10.46,3.46-15.68,7.26-16.77,24.98-26.95,43.06-24.69,24.36,3.04,40.41,26.04,35.72,49.55,2.83-.91,5.76-.66,8.05,.97,4.4,3.14,4.8,10.15,.89,15.67-3.91,5.52-10.64,7.45-15.04,4.31-.61-.44-1.14-.95-1.59-1.52-6.02,19.6-25.44,31.75-44.97,27.49-14.87-3.25-27.07-15.67-29.47-32.66Z"/><path class="cls-54" d="M1008.9,506.87c-.43,1.96,.82,3.9,2.77,4.33,1.96,.43,3.89-.82,4.31-2.78,.43-1.96-.82-3.9-2.77-4.33-1.96-.43-3.89,.82-4.31,2.78Z"/><path class="cls-54" d="M978.05,502.23c-.43,1.96,.82,3.9,2.77,4.33,1.96,.43,3.89-.82,4.31-2.78,.43-1.96-.82-3.9-2.77-4.33-1.96-.43-3.89,.82-4.31,2.78Z"/><path class="cls-61" d="M1006.15,498.89c1.89-.34,3.67-.55,5.42-.58,1.74-.03,3.43,.16,5.04,.6,1.59,.46,3.18,1.06,4.63,2.02l.57,.33c.19,.11,.35,.26,.54,.38l1.1,.78c.74,.53,1.4,1.17,2.23,1.71-.35-.89-.77-1.77-1.28-2.6-.6-.75-1.12-1.62-1.9-2.25-1.4-1.42-3.27-2.38-5.22-2.92-1.96-.53-4.04-.55-5.97-.1-1.92,.47-3.74,1.3-5.16,2.63Z"/><path class="cls-61" d="M991.74,496.51c-.92-1.72-2.38-3.09-4.04-4.15-1.68-1.04-3.66-1.7-5.69-1.82-2.02-.11-4.1,.2-5.88,1.09-.94,.34-1.71,1-2.51,1.52-.75,.62-1.43,1.32-2.05,2.05,.96-.25,1.79-.64,2.66-.91l1.29-.38c.22-.05,.42-.14,.63-.19l.64-.12c1.68-.44,3.37-.5,5.03-.42,1.66,.1,3.32,.46,4.96,1.05,1.65,.59,3.26,1.37,4.95,2.29Z"/><path class="cls-33" d="M997.39,497.09c.25,2.62,.06,5.24-.43,7.83-.25,1.3-.6,2.59-1.1,3.87-.53,1.27-1.16,2.55-2.32,3.65l-.48,.38-.43,.32c-.18,.16-.43,.27-.58,.45-.35,.32-.62,.69-.78,1.1-.39,.82-.22,1.85,.2,2.83,.93,2.01,3.05,3.52,5.39,4.63-2.57-.12-5.4-1.15-7.07-3.67-.82-1.22-1.27-2.94-.74-4.57,.13-.4,.29-.79,.53-1.13,.2-.37,.49-.66,.77-.96,.27-.32,.61-.5,.92-.75,.19-.13,.23-.18,.33-.26l.27-.21c.72-.66,1.32-1.7,1.84-2.76,.56-1.07,.93-2.26,1.38-3.42,.81-2.38,1.52-4.83,2.29-7.33Z"/></g><path class="cls-61" d="M992.6,461.33s19.15,40.05,58.1,46l6.54-28.07s-12.9-14.97-14.58-16.89c-1.68-1.92-27.81-10.98-27.81-10.98l-21.77,3.15-.48,6.8Z"/></g><path class="cls-49" d="M1055.12,598.09s46.17,157.68,91.74,214.25l-17.76,10.9s-86.31-114.76-99.72-164.87c-13.4-50.11,25.73-60.29,25.73-60.29Z"/><path class="cls-49" d="M533.21,594.2l-2.79-39.74-30.8-4.59-5.7,44.48s27.05,6.22,39.29-.15Z"/><path class="cls-33" d="M531.75,573.36l-1.33-18.9-30.8-4.59-1.97,15.4c5.88,6.43,16.66,13.3,34.1,8.09Z"/><path class="cls-33" d="M564.21,518.89c-2.88,5.37-1.75,11.61,2.53,13.92,4.28,2.32,10.08-.16,12.96-5.53,2.88-5.37,1.75-11.6-2.53-13.92-4.28-2.32-10.08,.16-12.96,5.53Z"/><path class="cls-49" d="M563.42,544.28c3.45-6.94,5.62-14.47,6.99-21.09,.29-1.42,.67-2.82,1.07-4.22,1.62-5.63,2.25-11.72,1.57-18.12-2.16-20.6-17.83-37.64-38.1-41.38-27.31-5.03-52.41,14.35-55.31,41.36-2.75-1.95-5.99-2.68-9.02-1.7-5.81,1.89-8.61,9.34-6.26,16.63,2.35,7.3,8.96,11.68,14.77,9.79,.81-.26,1.55-.64,2.23-1.1-.13,23.23,16.7,43,39.22,45.05,17.05,1.56,34.46-7.6,42.84-25.23Z"/><path class="cls-33" d="M536.86,506.56c-.03,2.71-.12,5.34-.1,7.93,.06,2.53,.21,5.25,1.14,7.07l.19,.29c.07,.11,.09,.17,.23,.36,.22,.35,.5,.65,.66,1.05,.37,.75,.62,1.62,.59,2.51-.02,1.79-1.03,3.35-2.24,4.28-2.49,1.92-5.6,1.98-8.15,1.23,2.64-.35,5.2-1.15,6.74-2.8,.72-.83,1.21-1.76,1.09-2.67-.03-.44-.16-.88-.4-1.3-.08-.22-.28-.41-.41-.62l-.32-.46-.35-.54c-.78-1.48-.98-2.95-1.08-4.37-.07-1.42,.01-2.8,.2-4.16,.38-2.71,1.07-5.33,2.19-7.8Z"/><path class="cls-61" d="M526.69,500.38c-2.06-.74-4-1.32-5.93-1.71-1.93-.39-3.82-.52-5.68-.38-1.85,.17-3.72,.48-5.54,1.22-.96,.25-1.81,.78-2.78,1.14-.94,.42-1.82,.97-2.87,1.38,.56-.93,1.2-1.84,1.94-2.67,.81-.74,1.58-1.58,2.58-2.13,1.86-1.3,4.16-1.99,6.45-2.17,2.31-.18,4.64,.26,6.69,1.2,2.04,.95,3.88,2.3,5.14,4.13Z"/><path class="cls-61" d="M544.64,503.21c1.72-1.4,3.86-2.18,6.08-2.52,2.23-.32,4.59-.09,6.76,.73,2.15,.82,4.17,2.13,5.59,3.9,.8,.8,1.31,1.83,1.88,2.77,.48,1,.84,2.05,1.12,3.1-.9-.69-1.59-1.46-2.38-2.13-.84-.62-1.5-1.36-2.35-1.87-1.54-1.22-3.25-2.04-4.98-2.72-1.75-.66-3.61-1.06-5.56-1.23-1.96-.17-3.98-.16-6.17-.02Z"/><path class="cls-44" d="M1042.26,563.4s-119.02-2.54-97.3,98.48c0,0,9.65,34.75,8.04,46.07-1.61,11.31-16.89,41.86-15.28,70.64,1.61,28.77-88.46,74.03-95.7,102.32,0,0,31.36,18.59,44.23,34.75,12.87,16.16,42.62,84.86,135.9,87.28,93.28,2.42,131.08,7.27,131.08,7.27,0,0-4.02-33.94-46.64-84.05-42.62-50.11-32.97-189.11-70.77-223.06,0,0,47.45-132.3,6.43-139.69Z"/><path class="cls-6" d="M1106.59,926.15c-42.62-50.11-32.97-189.11-70.77-223.06,0,0,41.69-116.24,13.13-136.9,0,.02-38.87,111.04-56.56,127.2,0,0,32.64,66.27,34.41,98.6,1.77,32.33-23.96,76.4-10.29,102.45,13.67,26.05,25.66,118.47-79.65,80.75,20.05,14.87,47.43,26.76,85.28,27.74,93.28,2.42,131.08,7.27,131.08,7.27,0,0-4.02-33.94-46.64-84.05Z"/><path class="cls-49" d="M865.94,520.54s37.99,93.65,44.43,95.81c6.43,2.16,60.04-18.03,81.49-31.37,21.44-13.34,46.64-24.2,54.68-13.11,8.04,11.08-15.01,68.19-119.02,82.74,0,0-39.67,11.86-56.83-38.79-17.16-50.65-22.85-97.23-22.85-97.23l18.09,1.96Z"/><path class="cls-3" d="M986.66,712.61c-16.54,0-28.21-1.64-33.57-2.58-1.79-.32-2.94-2.07-2.53-3.85v-.02c.38-1.65,1.97-2.71,3.63-2.42,9.52,1.63,41.4,5.73,84.94-2.7,1.71-.33,3.37,.77,3.72,2.48h0c.35,1.73-.77,3.42-2.49,3.76-20.99,4.07-39.21,5.33-53.69,5.33Zm-36.13-6.33l.71-3.1s0,0,0,0l-.71,3.1Z"/><path class="cls-16" d="M1012.88,529.04c-1.15,5.47-6.35,9.6-12.59,9.58-6.24-.02-11.41-4.18-12.51-9.66l25.1,.08Z"/><path class="cls-49" d="M473.44,566.2s46.24,19.7,73.98,28.19c0,0-8.44,35.57-11.26,33.95-2.81-1.62-60.71-17.38-60.71-17.38l-2.01-44.76Z"/><path class="cls-102" d="M389.72,862.66s10.14,122.09,53.57,203.71l-44.23,187.07s14.67,8.92,52.21,8.92c0,0,64.4-179.42,68.01-195.98,3.62-16.57-16.8-102.95-16.8-102.95l105.89,301.43s29.39,2.89,52.06-9.51l-98.94-384.04-62.72-42.16-109.05,33.5Z"/><path class="cls-49" d="M349.06,617.56c-37.43,33.72-117.16,148.65-117.16,148.65h0c-1.36,.75-2.38,1.32-2.38,1.32-23.61,14-21.43,12.19-21.06,13.14,.37,.95,11.7-2.01,11.71-.83,0,1.18-13.5,9.98-12.19,10.56,1.31,.58,14.76-6.02,15.02-5.12,.26,.9-12.9,9.2-11.69,10.91,1.21,1.71,15.31-7.87,15.72-6.12,.41,1.75-14.3,11.2-12.95,12.58,1.13,1.16,17.84-9,23.12-12.27,.68-.42,1.56,.1,1.53,.9-.35,12.39,.34,13.37,1.7,13.1,.97-.19,4.73-10.79,8.81-20.51l3.16-8.11h0c20.8-22.65,84.62-90.57,126.95-127.43-9.84-9.99-20.38-20.69-30.29-30.78Z"/><path class="cls-86" d="M409.92,648.14s-31.36,129.31-28.15,211.74c0,0,87.65,33.94,187.37,19.4,0,0-16.08-115.57-16.89-122.84-.8-7.27,20.1-66.27,20.1-66.27,0,0,16.89,23.44,36.19,37.98,0,0,23.32-10.48,37.8-44.03,0,0-49.05-58.61-64.33-71.54-15.28-12.93-34.58-18.19-34.58-18.19,0,0-53.88,2.21-73.98-28.19,0,0-53.08,2.58-79.61,16.4-26.54,13.82-63.53,45.8-63.53,45.8,0,0,4.02,29.44,24.93,47.22l54.68-27.48Z"/><path class="cls-4" d="M455.62,567.7c-17.88,1.95-45.09,6.2-61.79,14.89-26.54,13.82-63.53,45.8-63.53,45.8,0,0,4.02,29.44,24.93,47.22l54.68-27.48s-31.36,129.31-28.15,211.74c0,0,87.65,33.94,187.37,19.4,0,0-1.56-11.22-3.73-26.88-173.22-36.41-132.23-216.25-109.78-284.69Z"/><path class="cls-54" d="M519.46,510.68c.29,2.31-1.34,4.42-3.65,4.71-2.3,.29-4.41-1.35-4.7-3.66-.29-2.31,1.34-4.42,3.65-4.71,2.3-.29,4.41,1.35,4.7,3.66Z"/><path class="cls-54" d="M555.28,515.92c.29,2.31-1.34,4.42-3.65,4.71-2.3,.29-4.41-1.35-4.7-3.66-.29-2.31,1.34-4.42,3.65-4.71,2.3-.29,4.41,1.35,4.7,3.66Z"/><path class="cls-61" d="M581.57,490.12s8.02,.56,11.01-2.4c0,0-10.27,2.04-12.92-10.16-2.64-12.2-11.73-25.47-26.57-31.12-14.85-5.65-54.95-8.78-66.48,.05-11.52,8.84-16.59,18.3-17.64,32.31-1.05,14.01-5.92,19.21-9.92,18.74,0,0,4.68,2.76,10.21,.61,0,0-1.23,6.04-6.73,7.05,0,0,12.77,.67,16.59-6.83,0,0-2.17,15.12-5.89,18.07,0,0,10.65-2.79,16.69-27.31,0,0,43.32-10,53.06-28.56,0,0-8.46,18.77-15.45,20.89,0,0,17.17,3.49,28.86-12.55,0,0,11.28,11.91,13.67,19.18,2.31,7.01,2.51,23.81,2.36,25l8.11-17.89s3.92,4.26,10.53,2.52c0,0-8.5-3.8-9.5-7.62Z"/><path class="cls-33" d="M513.57,531.73c.94,1.57,2.01,2.99,3.23,4.23,5.45,5.4,11.68,4.22,14.42,4.22-6.37,2.56-11.5,1.17-15.33-3.41-1.15-1.5-1.98-3.22-2.31-5.04Z"/></g><g><path class="cls-87" d="M29.66,638.56c-6.21,3.12-11.18-1.25-16.15-5-1.86-1.25-4.97-1.25-7.46,.62-.62-2.5,0-5.62,1.24-6.87,5.59-5,11.18,1.25,16.15,4.37,2.49,1.25,4.97,1.25,8.08-.62-.62,2.5-1.24,5-1.86,7.49h0Z"/><path class="cls-70" d="M233.15,511.5c-6.21,2.5-11.8-.62-16.78-5-1.86-1.25-4.97-1.25-7.46,.62,1.24-2.5,0-5.62,1.24-8.12,4.97-1.25,10.56,0,14.29,3.12,3.11,3.12,6.83,3.12,9.94,1.25,0,2.5-1.86,5-1.24,8.12h0Z"/><path class="cls-32" d="M341.85,267.47c-8.08,1.87-11.8-6.24-17.4-9.99-1.86-.62-3.73,0-5.59,0,1.24-2.5,2.49-4.37,3.11-6.87,6.83-1.25,11.18,3.12,14.91,8.12,1.86,1.87,4.97,2.5,8.08,1.25-.62,2.5-2.49,5-3.11,7.49h0Z"/><path class="cls-1" d="M464.63,360.58c4.97,4.37,3.11,11.24,3.11,16.86-.62,2.5-.62,5,3.11,6.87-2.49,.62-5.59,1.25-8.08,1.87-3.73-5-3.11-11.24-1.86-16.86,0-2.5-1.24-5-3.73-6.87,2.49-.62,4.97-1.25,7.46-1.87h0Z"/><path class="cls-23" d="M485.37,171.31c2.49-5.62,9.32-7.49,14.91-7.49,2.49-.62,4.35-2.5,5.59-5.62,1.86,1.87,2.49,5,4.35,6.87-3.73,6.24-11.18,6.24-17.4,8.12-1.86,.62-2.49,2.5-3.11,4.37-1.86-1.87-3.11-4.37-4.35-6.24h0Z"/><path class="cls-101" d="M203.19,662.48c2.49-4.37,6.83-6.87,12.43-6.87,3.73,0,7.46-1.25,8.7-6.24,1.24,2.5,3.11,4.37,4.35,6.87-3.11,5.62-9.32,6.87-15.53,8.12-2.49,0-4.97,1.87-5.59,5-1.86-1.87-2.49-5-4.35-6.87h0Z"/><path class="cls-38" d="M127.04,345.21c3.11-5.62,8.7-6.87,14.91-7.49,3.11-.62,4.35-3.12,6.21-5.62,1.24,2.5,1.86,5,3.73,6.87-3.11,5.62-8.7,6.87-14.91,7.49-2.49,.62-4.35,2.5-5.59,5.62-1.86-1.87-2.49-5-4.35-6.87h0Z"/><path class="cls-100" d="M460.52,290.57c3.11-5,8.7-7.49,14.91-7.49,2.49-.62,4.35-2.5,5.59-5.62,1.86,1.87,2.49,5,4.35,6.87-3.73,6.24-11.18,5.62-17.4,8.12-1.86,.62-2.49,2.5-3.73,4.37-.62-2.5-2.49-4.37-3.73-6.24h0Z"/><path class="cls-80" d="M7.46,735.71c4.35,5,3.73,11.86,1.24,17.48-.62,2.5,1.24,5,3.11,6.87-2.49,.62-4.97,.62-7.46,1.87-3.11-3.12-3.73-7.49-3.11-11.24,1.24-4.37,3.11-9.99-1.24-13.11,2.49-.62,4.97-1.25,7.46-1.87h0Z"/><path class="cls-79" d="M154.92,864.03c3.73,5,.62,11.86-.62,16.86-1.24,2.5-1.24,5,1.86,7.49-2.49,.62-4.97,.62-7.46,.62-3.73-5-1.86-11.24,.62-16.86,.62-2.5,0-5-2.49-7.49,2.49,.62,5.59-1.25,8.08-.62h0Z"/><path class="cls-14" d="M564.9,226.88c3.73-6.24,10.56-7.49,16.78-9.99,1.24,0,2.49-2.5,3.11-4.37,1.24,2.5,3.73,3.75,4.97,6.24-2.49,7.49-10.56,6.87-16.78,9.99-1.24,.62-2.49,2.5-3.11,4.37-1.86-1.87-3.11-4.37-4.97-6.24h0Z"/><path class="cls-15" d="M124.63,462.68c-6.21,0-9.94-5-13.67-10.61-1.24-1.87-3.73-3.12-6.83-2.5,1.24-2.5,3.11-4.37,4.35-6.87,3.73,0,7.46,1.87,9.32,5,2.49,4.37,5.59,9.37,11.18,8.12-1.86,1.87-2.49,5-4.35,6.87h0Z"/><path class="cls-46" d="M49.7,864.34c-6.21,0-9.94-5.62-13.67-10.62-1.24-1.25-3.73-3.12-6.83-2.5,1.24-2.5,1.86-5.62,3.73-6.24,2.49-.62,4.97,.62,7.46,1.87,3.11,3.12,4.35,7.49,8.08,9.99,1.86,1.25,3.73,.62,5.59,.62-1.86,1.87-2.49,5-4.35,6.87h0Z"/><path class="cls-84" d="M62.2,409.02c-7.46-.62-10.56-7.49-14.91-12.49-1.24-1.25-3.73-.62-5.59-.62,0-3.12,3.11-4.37,4.35-6.87,3.73,0,7.46,1.87,9.32,5,3.11,3.75,5.59,8.74,11.18,8.12-1.86,1.87-3.11,4.37-4.35,6.87h0Z"/><path class="cls-12" d="M150.14,243.41c3.73-4.37,9.32-6.87,15.53-6.87,2.49-.62,4.35-2.5,5.59-5.62,1.86,1.87,2.49,5,4.35,6.87-2.49,4.37-6.83,6.87-12.43,6.87-3.73,0-7.46,1.25-8.7,5.62-1.86-1.87-2.49-5-4.35-6.87h0Z"/><path class="cls-41" d="M307.06,161.95c4.35-4.37,9.94-5.62,16.15-4.37,3.11,0,4.97-2.5,6.83-4.37,0,2.5,3.11,5,1.86,6.87-2.49,6.87-11.8,3.75-18.02,5.62-1.86,.62-2.49,1.87-3.73,3.75-1.24-2.5-2.49-5-3.11-7.49h0Z"/><path class="cls-71" d="M149.86,65.52c4.35-4.37,9.94-5.62,16.15-4.37,3.11,0,4.97-2.5,6.83-4.37,0,2.5,3.11,5,1.86,6.87-2.49,6.87-11.8,3.75-18.02,5.62-1.86,.62-2.49,1.87-3.73,3.75-1.24-2.5-2.49-5-3.11-7.49h0Z"/><path class="cls-21" d="M631.38,166.32c-6.21,0-10.56-3.75-14.29-9.37-1.24-1.87-4.35-2.5-7.46-1.87,.62-2.5,3.11-4.37,3.73-6.87,7.46-1.25,11.18,6.24,16.15,10.61,1.86,1.25,3.73,.62,5.59,.62-1.24,2.5-1.86,5-3.73,6.87h0Z"/><path class="cls-59" d="M316.38,429.82c-6.21,0-10.56-4.37-14.29-9.37-1.86-1.87-3.73-3.75-7.46-1.87,.62-3.12,2.49-5,3.73-7.49,5.59,.62,10.56,3.75,13.67,9.37,1.86,2.5,4.97,2.5,8.08,2.5-.62,2.5-3.11,4.37-3.73,6.87h0Z"/><path class="cls-43" d="M409.58,200.66c3.73,5.62,1.24,11.86-1.86,16.86-1.24,2.5,0,5.62,1.86,7.49h-7.46c-5.59-6.24,1.24-12.49,1.86-19.36,.62-1.87-1.24-3.12-1.86-5h7.46Z"/><path class="cls-76" d="M402.43,52.94c3.73,5.62,1.24,11.86-1.86,16.86-1.24,2.5,0,5.62,1.86,7.49h-7.46c-5.59-6.24,1.24-12.49,1.86-19.36,.62-1.87-1.24-3.12-1.86-5h7.46Z"/><path class="cls-90" d="M233.74,221.27c2.49,5.62,1.24,11.24-1.86,16.86-1.86,2.5-.62,5.62,1.86,8.12h-8.08c-3.11-5-1.86-11.86,1.86-16.86,1.86-2.5,.62-5.62-1.86-8.12h8.08Z"/><path class="cls-81" d="M324.46,502.87c3.11,5.62,1.24,11.24-1.86,16.86-1.24,2.5-.62,5,1.86,7.49-2.49,0-5.59,.62-8.08-.62-3.11-1.87-2.49-6.87-1.24-10.61,1.24-2.5,3.73-5,3.73-8.12,0-1.87-1.24-3.75-2.49-5h8.08Z"/><path class="cls-20" d="M38.98,544.9c-6.21,0-10.56-5-13.05-10.61-1.24-3.12-4.97-2.5-7.46-3.12,1.86-1.87,3.11-4.37,4.35-6.24,6.21,0,10.56,5,13.05,10.61,1.24,3.12,4.97,2.5,7.46,3.12-1.86,1.87-3.11,4.37-4.35,6.24h0Z"/><path class="cls-11" d="M124.56,655.96c-7.46-.62-10.56-7.49-14.91-12.49-1.24-1.25-3.11-1.87-5.59-1.25,1.24-2.5,3.11-4.37,4.35-6.87,4.35,1.25,9.32,3.12,11.8,8.74,1.24,3.12,4.35,5.62,8.7,5-1.86,1.87-2.49,5-4.35,6.87h0Z"/><path class="cls-99" d="M227.53,592.8c-6.83-1.87-8.08-9.99-11.8-15.61-1.24-1.25-3.73-1.87-5.59-1.87,1.86-1.87,3.73-3.75,5.59-5.62,6.21,.62,9.32,6.87,10.56,12.49,1.24,3.12,4.35,3.75,6.83,4.37-1.24,2.5-3.73,4.37-5.59,6.24h0Z"/><path class="cls-62" d="M386.59,340.53c-7.46-1.87-8.7-9.37-12.43-15.61-1.24-1.25-3.11-1.87-4.97-1.87,1.24-2.5,3.11-5,5.59-5,7.46,0,8.08,8.74,11.8,14.36,1.24,1.25,3.73,1.87,5.59,1.87-1.86,1.87-4.35,3.75-5.59,6.24h0Z"/><path class="cls-83" d="M121.52,561.96c-5.59-1.87-8.7-7.49-11.18-13.11-.62-1.87-2.49-4.37-6.21-4.37l5.59-5.62c5.59,1.87,8.7,7.49,11.18,13.11,.62,1.87,2.49,4.37,6.21,4.37-1.86,1.87-3.73,3.75-5.59,5.62h0Z"/><path class="cls-95" d="M206.41,395.48c4.97,6.87-.62,13.11-1.86,19.98,0,1.87,1.24,3.75,2.49,5-2.49,0-5.59,.62-7.46-.62-2.49-1.87-3.11-6.87-1.86-10.62,1.24-2.5,3.73-5,3.73-8.12-.62-1.87-1.86-3.75-3.11-5,2.49-.62,5.59-.62,8.08-.62h0Z"/><path class="cls-26" d="M132.96,805.64c4.35-5,10.56-3.75,16.78-2.5,2.49,0,4.97-1.25,6.83-3.75,1.24,2.5,1.86,5,2.49,7.49-4.97,5.62-12.43,2.5-19.26,3.12-1.86,0-3.11,1.87-4.35,3.75-1.24-2.5-1.86-5.62-2.49-8.12h0Z"/><path class="cls-52" d="M103.36,717.42c4.35-5,10.56-3.75,16.78-2.5,2.49,0,4.97-1.25,6.83-3.75,1.24,2.5,1.86,5,2.49,7.49-4.97,5.62-12.43,2.5-19.26,3.12-1.86,0-3.11,1.87-4.35,3.75-1.24-2.5-1.86-5.62-2.49-8.12h0Z"/><path class="cls-34" d="M369.79,451.81c.64-6.61,6.92-9.59,12.19-11.85,2.02-1.45,3.32-3.92,3.39-7.05,1.95,1.67,3.91,3.33,5.86,5-.78,7.48-8.65,9.3-13.34,13.45-1.52,1.09-1.44,3.34-1.37,5.59-2.46-1.3-4.77-3.48-6.72-5.14h0Z"/><path class="cls-69" d="M1203.61,170.06c-6.21,3.12-11.18-1.25-16.15-5-1.86-1.25-4.97-1.25-7.46,.62-.62-2.5,0-5.62,1.24-6.87,5.59-5,11.18,1.25,16.15,4.37,2.49,1.25,4.97,1.25,8.08-.62-.62,2.5-1.24,5-1.86,7.49h0Z"/><path class="cls-25" d="M1195.44,13.11c-6.21,3.12-11.18-1.25-16.15-5-1.86-1.25-4.97-1.25-7.46,.62-.62-2.5,0-5.62,1.24-6.87,5.59-5,11.18,1.25,16.15,4.37,2.49,1.25,4.97,1.25,8.08-.62-.62,2.5-1.24,5-1.86,7.49h0Z"/><path class="cls-51" d="M1357.07,355.51c-5.59,3.12-11.8-.62-16.15-5-2.49-1.25-4.97-1.25-8.08,.62,.62-2.5,.62-5.62,1.86-6.87,5.59-5,11.18,1.25,16.15,4.37,2.49,1.25,4.97,1.25,7.46-.62,.62,2.5-.62,5-1.24,7.49h0Z"/><path class="cls-68" d="M915.94,421.7c-6.21,0-10.56-3.75-14.29-8.74-1.86-1.87-4.97-2.5-8.08-1.25,1.24-2.5,2.49-5,3.11-7.49,2.49,0,5.59,.62,8.08,1.87,3.73,1.87,4.97,6.24,8.7,8.12,1.86,.62,3.73,.62,5.59,0-1.24,2.5-1.86,5-3.11,7.49h0Z"/><path class="cls-64" d="M684.19,474.78c-7.46,1.87-11.18-5.62-16.78-9.99-1.24-.62-3.73,0-5.59,0,1.86-1.87,1.24-5.62,3.11-6.24,5.59-2.5,10.56,2.5,14.29,7.49,1.86,1.87,4.97,2.5,8.08,1.25-.62,2.5-2.49,5-3.11,7.49h0Z"/><path class="cls-30" d="M1191.81,240.62c4.97,4.37,3.11,11.24,3.11,16.86-.62,2.5-.62,5,3.11,6.87-2.49,.62-5.59,1.25-8.08,1.87-3.73-5-3.11-11.24-1.86-16.86,0-2.5-1.24-5-3.73-6.87,2.49-.62,4.97-1.25,7.46-1.87h0Z"/><path class="cls-57" d="M632,373c6.21,5,1.86,12.49,2.49,19.36,.62,1.87,2.49,3.12,3.73,4.37-2.49,.62-5.59,1.25-8.08,1.87-1.86-4.37-4.97-8.12-3.11-13.74,1.24-3.12,1.24-7.49-2.49-9.99,1.86-1.87,4.97-.62,7.46-1.87h0Z"/><path class="cls-55" d="M1393.73,296.82c2.49-5.62,9.32-7.49,14.91-7.49,2.49-.62,4.35-2.5,5.59-5.62,1.86,1.87,2.49,5,4.35,6.87-3.73,6.24-11.18,6.24-17.4,8.12-1.86,.62-2.49,2.5-3.11,4.37-1.86-1.87-3.11-4.37-4.35-6.24h0Z"/><path class="cls-17" d="M912.84,343.65c2.49-4.37,6.83-6.87,12.43-6.87,3.73,0,7.46-1.25,8.7-6.24,1.24,2.5,3.11,4.37,4.35,6.87-3.11,5.62-9.32,6.87-15.53,8.12-2.49,0-4.97,1.87-5.59,5-1.86-1.87-2.49-5-4.35-6.87h0Z"/><path class="cls-2" d="M1056.36,239.37c3.11-5.62,8.7-6.87,14.91-7.49,3.11-.62,4.35-3.12,6.21-5.62,1.24,2.5,1.86,5,3.73,6.87-3.11,5.62-8.7,6.87-14.91,7.49-2.49,.62-4.35,2.5-5.59,5.62-1.86-1.87-2.49-5-4.35-6.87h0Z"/><path class="cls-82" d="M1201.13,345.52c3.11-5.62,8.7-6.87,14.91-7.49,2.49-.62,4.35-2.5,5.59-5.62,1.86,1.87,2.49,5,4.35,6.87-3.11,5.62-8.7,6.87-14.91,7.49-2.49,.62-4.35,2.5-5.59,5.62-1.86-1.87-2.49-5-4.35-6.87h0Z"/><path class="cls-42" d="M1332.84,253.73c3.11-5,8.7-7.49,14.91-7.49,2.49-.62,4.35-2.5,5.59-5.62,1.86,1.87,2.49,5,4.35,6.87-3.73,6.24-11.18,5.62-17.4,8.12-1.86,.62-2.49,2.5-3.73,4.37-.62-2.5-2.49-4.37-3.73-6.24h0Z"/><path class="cls-97" d="M1356.32,59.85c3.11-5,8.7-7.49,14.91-7.49,2.49-.62,4.35-2.5,5.59-5.62,1.86,1.87,2.49,5,4.35,6.87-3.73,6.24-11.18,5.62-17.4,8.12-1.86,.62-2.49,2.5-3.73,4.37-.62-2.5-2.49-4.37-3.73-6.24h0Z"/><path class="cls-19" d="M1255.18,477.27c1.24,1.87,2.49,4.37,3.11,6.87,0,5.62-4.97,11.86,1.24,17.48-3.11-.62-5.59,.62-8.08,1.25-3.73-5-3.73-11.24-1.24-16.86,.62-3.12-1.24-5.62-3.11-7.49,2.49,0,4.97-1.87,8.08-1.25h0Z"/><path class="cls-48" d="M295.88,329.29c4.35,5,3.73,11.86,1.24,17.48-.62,2.5,1.24,5,3.11,6.87-2.49,.62-4.97,.62-7.46,1.87-3.11-3.12-3.73-7.49-3.11-11.24,1.24-4.37,3.11-9.99-1.24-13.11,2.49-.62,4.97-1.25,7.46-1.87h0Z"/><path class="cls-60" d="M761.24,296.19c3.73,5,.62,11.86-.62,16.86-1.24,2.5-1.24,5,1.86,7.49-2.49,.62-4.97,.62-7.46,.62-3.73-5-1.86-11.24,.62-16.86,.62-2.5,0-5-2.49-7.49,2.49,.62,5.59-1.25,8.08-.62h0Z"/><path class="cls-28" d="M976.21,409.84c3.73-6.24,10.56-7.49,16.78-9.99,1.24,0,2.49-2.5,3.11-4.37,1.24,2.5,3.73,3.75,4.97,6.24-2.49,7.49-10.56,6.87-16.78,9.99-1.24,.62-2.49,2.5-3.11,4.37-1.86-1.87-3.11-4.37-4.97-6.24h0Z"/><path class="cls-77" d="M895.44,169.44c-2.49,0-4.97-.62-7.46-2.5-4.97-3.75-5.59-11.24-13.05-10.61,.62-2.5,2.49-4.37,3.73-6.24,7.46-.62,10.56,7.49,15.53,11.86,1.24,1.25,3.11,1.87,5.59,1.25-1.86,1.87-3.11,4.37-4.35,6.24h0Z"/><path class="cls-98" d="M585.41,303.69c-6.21,0-9.94-5-13.67-10.61-1.24-1.87-3.73-3.12-6.83-2.5,1.24-2.5,3.11-4.37,4.35-6.87,3.73,0,7.46,1.87,9.32,5,2.49,4.37,5.59,9.37,11.18,8.12-1.86,1.87-2.49,5-4.35,6.87h0Z"/><path class="cls-103" d="M602.76,43.12c-6.21,0-9.94-5-13.67-10.61-1.24-1.87-3.73-3.12-6.83-2.5,1.24-2.5,3.11-4.37,4.35-6.87,3.73,0,7.46,1.87,9.32,5,2.49,4.37,5.59,9.37,11.18,8.12-1.86,1.87-2.49,5-4.35,6.87h0Z"/><path class="cls-105" d="M860.03,242.5c-6.21,0-9.94-5.62-13.67-10.61-1.24-1.25-3.73-3.12-6.83-2.5,1.24-2.5,1.86-5.62,3.73-6.24,2.49-.62,4.97,.62,7.46,1.87,3.11,3.12,4.35,7.49,8.08,9.99,1.86,1.25,3.73,.62,5.59,.62-1.86,1.87-2.49,5-4.35,6.87h0Z"/><path class="cls-22" d="M831.44,86.57c-6.21,0-9.94-5.62-13.67-10.61-1.24-1.25-3.73-3.12-6.83-2.5,1.24-2.5,1.86-5.62,3.73-6.24,2.49-.62,4.97,.62,7.46,1.87,3.11,3.12,4.35,7.49,8.08,9.99,1.86,1.25,3.73,.62,5.59,.62-1.86,1.87-2.49,5-4.35,6.87h0Z"/><path class="cls-74" d="M734.52,178.18c-7.46-.62-10.56-7.49-14.91-12.49-1.24-1.25-3.73-.62-5.59-.62,0-3.12,3.11-4.37,4.35-6.87,3.73,0,7.46,1.87,9.32,5,3.11,3.75,5.59,8.74,11.18,8.12-1.86,1.87-3.11,4.37-4.35,6.87h0Z"/><path class="cls-13" d="M1018.46,162.57c3.73-4.37,9.32-6.87,15.53-6.87,2.49-.62,4.35-2.5,5.59-5.62,1.86,1.87,2.49,5,4.35,6.87-2.49,4.37-6.83,6.87-12.43,6.87-3.73,0-7.46,1.25-8.7,5.62-1.86-1.87-2.49-5-4.35-6.87h0Z"/><path class="cls-53" d="M174.72,145.71c3.11-5,9.32-6.87,15.53-6.87,2.49-.62,4.35-2.5,5.59-5.62,1.86,1.87,2.49,5,4.35,6.87-3.73,6.87-11.8,6.24-18.02,8.12-1.86,.62-2.49,2.5-3.11,4.37-1.86-1.87-2.49-5-4.35-6.87h0Z"/><path class="cls-78" d="M797.89,542.21c4.35-5,9.94-5,16.15-4.37,2.49,0,4.97-1.25,6.83-4.37,0,2.5,3.11,5,1.86,7.49-2.49,5.62-9.32,5-15.53,4.37-3.11,0-4.35,2.5-6.21,4.37-1.24-2.5-2.49-5-3.11-7.49h0Z"/><path class="cls-89" d="M1188.7,392.98c-6.21,0-10.56-4.37-14.29-9.37-1.86-1.87-3.73-3.75-7.46-1.87,.62-3.12,2.49-5,3.73-7.49,5.59,.62,10.56,3.75,13.67,9.37,1.86,2.5,4.97,2.5,8.08,2.5-.62,2.5-3.11,4.37-3.73,6.87h0Z"/><path class="cls-66" d="M1281.9,163.82c3.73,5.62,1.24,11.86-1.86,16.86-1.24,2.5,0,5.62,1.86,7.49h-7.46c-5.59-6.24,1.24-12.49,1.86-19.36,.62-1.87-1.24-3.12-1.86-5h7.46Z"/><path class="cls-67" d="M1106.06,184.43c2.49,5.62,1.24,11.24-1.86,16.86-1.86,2.5-.62,5.62,1.86,8.12h-8.08c-3.11-5-1.86-11.86,1.86-16.86,1.86-2.5,.62-5.62-1.86-8.12h8.08Z"/><path class="cls-50" d="M1399.94,157.58c2.49,5.62,1.24,11.86-1.86,17.48-1.24,2.5-.62,5,1.86,7.49h-8.08c-3.73-5.62-1.24-11.86,1.86-16.86,1.24-2.5,.62-5.62-1.86-8.12,2.49-.62,4.97,1.25,8.08,0h0Z"/><path class="cls-91" d="M847.6,316.18c-6.21,0-10.56-5-13.05-10.61-1.24-3.12-4.97-2.5-7.46-3.12,1.86-1.87,3.11-4.37,4.35-6.24,6.21,0,10.56,5,13.05,10.62,1.24,3.12,4.97,2.5,7.46,3.12-1.86,1.87-3.11,4.37-4.35,6.24h0Z"/><path class="cls-58" d="M1356.45,467.28c-8.08,.62-9.94-8.12-14.91-12.49-1.24-1.25-3.73-.62-5.59-1.25,.62-2.5,3.11-3.75,4.35-6.24,4.97,.62,9.32,2.5,11.18,8.12,1.24,3.75,4.97,5.62,9.32,5-1.24,2.5-3.11,4.37-4.35,6.87h0Z"/><path class="cls-39" d="M996.71,289.95c-7.46-.62-10.56-7.49-14.91-12.49-1.24-1.25-3.11-1.87-5.59-1.25,1.24-2.5,3.11-4.37,4.35-6.87,4.35,1.25,9.32,3.12,11.8,8.74,1.24,3.12,4.35,5.62,8.7,5-1.86,1.87-2.49,5-4.35,6.87h0Z"/><path class="cls-63" d="M706.56,246.87c-7.46-.62-10.56-7.49-14.91-12.49-1.24-1.25-3.11-1.87-5.59-1.25,1.24-2.5,3.11-4.37,4.35-6.87,4.35,1.25,9.32,3.12,11.8,8.74,1.24,3.12,4.35,5.62,8.7,5-1.86,1.87-2.49,5-4.35,6.87h0Z"/><path class="cls-56" d="M1258.91,303.69c-7.46-1.87-8.7-9.37-12.43-15.61-1.24-1.25-3.11-1.87-4.97-1.87,1.24-2.5,3.11-5,5.59-5,7.46,0,8.08,8.74,11.8,14.36,1.24,1.25,3.73,1.87,5.59,1.87-1.86,1.87-4.35,3.75-5.59,6.24h0Z"/><path class="cls-75" d="M671.77,335.53c-5.59-1.87-8.7-7.49-11.18-13.11-.62-1.87-2.49-4.37-6.21-4.37,1.86-1.87,3.73-3.75,5.59-5.62,5.59,1.87,8.7,7.49,11.18,13.11,.62,1.87,2.49,4.37,6.21,4.37-1.86,1.87-3.73,3.75-5.59,5.62h0Z"/><path class="cls-92" d="M1078.73,358.64c4.97,6.87-.62,13.11-1.86,19.98,0,1.87,1.24,3.75,2.49,5-2.49,0-5.59,.62-7.46-.62-2.49-1.87-3.11-6.87-1.86-10.62,1.24-2.5,3.73-5,3.73-8.12-.62-1.87-1.86-3.75-3.11-5,2.49-.62,5.59-.62,8.08-.62h0Z"/><path class="cls-96" d="M533.22,412.34c4.97-5,12.43-3.12,19.26-3.12,1.86,0,3.11-1.87,4.35-3.75,1.24,2.5,1.86,5,2.49,7.49-4.35,4.37-10.56,4.37-16.78,3.75-2.49-.62-4.97,.62-6.83,3.12-1.24-2.5-1.86-5-2.49-7.49h0Z"/><path class="cls-18" d="M797.89,412.34c4.35-5,11.18-3.75,16.78-2.5,2.49,0,4.97-1.25,6.83-3.75,.62,2.5,1.24,5,1.86,7.49-4.97,5.62-12.43,2.5-18.64,3.12-1.86,0-3.11,1.87-4.35,3.75-1.24-2.5-1.86-5.62-2.49-8.12h0Z"/><path class="cls-65" d="M943.28,183.8c4.35-5,10.56-3.75,16.78-2.5,2.49,0,4.97-1.25,6.83-3.75,1.24,2.5,1.86,5,2.49,7.49-4.97,5.62-12.43,2.5-19.26,3.12-1.86,0-3.11,1.87-4.35,3.75-1.24-2.5-1.86-5.62-2.49-8.12h0Z"/><path class="cls-104" d="M960.63,52.49c4.35-5,10.56-3.75,16.78-2.5,2.49,0,4.97-1.25,6.83-3.75,1.24,2.5,1.86,5,2.49,7.49-4.97,5.62-12.43,2.5-19.26,3.12-1.86,0-3.11,1.87-4.35,3.75-1.24-2.5-1.86-5.62-2.49-8.12h0Z"/><path class="cls-35" d="M1108.55,293.7c4.35-4.37,10.56-4.37,16.78-3.75,2.49,.62,4.97-.62,6.83-3.12,1.24,2.5,1.86,5,2.49,7.49-4.97,5-12.43,3.12-19.26,3.12-1.86,0-3.11,1.87-4.35,3.75-1.24-2.5-1.86-5-2.49-7.49h0Z"/><path class="cls-94" d="M1233.43,412.34c4.35-5,11.18-3.75,16.78-2.5,2.49,0,4.97-1.25,6.83-3.75,.62,2.5,1.24,5,1.86,7.49-4.97,5.62-12.43,2.5-18.64,3.12-1.86,0-3.11,1.87-4.35,3.75-1.24-2.5-1.86-5.62-2.49-8.12h0Z"/><path class="cls-8" d="M1294.29,918.45c-6.21,3.12-11.18-1.25-16.15-5-1.86-1.25-4.97-1.25-7.46,.62-.62-2.5,0-5.62,1.24-6.87,5.59-5,11.18,1.25,16.15,4.37,2.49,1.25,4.97,1.25,8.08-.62-.62,2.5-1.24,5-1.86,7.49h0Z"/><path class="cls-47" d="M1188.08,451.05c-7.46,1.87-11.18-5.62-16.78-9.99-1.24-.62-3.73,0-5.59,0,1.86-1.87,1.24-5.62,3.11-6.24,5.59-2.5,10.56,2.5,14.29,7.49,1.86,1.87,4.97,2.5,8.08,1.25-.62,2.5-2.49,5-3.11,7.49h0Z"/><path class="cls-73" d="M1388.16,701.65c2.49-4.37,6.83-6.87,12.43-6.87,3.73,0,7.46-1.25,8.7-6.24,1.24,2.5,3.11,4.37,4.35,6.87-3.11,5.62-9.32,6.87-15.53,8.12-2.49,0-4.97,1.87-5.59,5-1.86-1.87-2.49-5-4.35-6.87h0Z"/><path class="cls-72" d="M1337.88,695.21c3.73,5,.62,11.86-.62,16.86-1.24,2.5-1.24,5,1.86,7.49-2.49,.62-4.97,.62-7.46,.62-3.73-5-1.86-11.24,.62-16.86,.62-2.5,0-5-2.49-7.49,2.49,.62,5.59-1.25,8.08-.62h0Z"/><path class="cls-85" d="M1422.28,754.86c3.73-6.24,10.56-7.49,16.78-9.99,1.24,0,2.49-2.5,3.11-4.37,1.24,2.5,3.73,3.75,4.97,6.24-2.49,7.49-10.56,6.87-16.78,9.99-1.24,.62-2.49,2.5-3.11,4.37-1.86-1.87-3.11-4.37-4.97-6.24h0Z"/><path class="cls-31" d="M1259.6,670.86c-6.21,0-9.94-5-13.67-10.62-1.24-1.87-3.73-3.12-6.83-2.5,1.24-2.5,3.11-4.37,4.35-6.87,3.73,0,7.46,1.87,9.32,5,2.49,4.37,5.59,9.37,11.18,8.12-1.86,1.87-2.49,5-4.35,6.87h0Z"/><path class="cls-40" d="M1380.05,556.99c-6.21,0-9.94-5-13.67-10.61-1.24-1.87-3.73-3.12-6.83-2.5,1.24-2.5,3.11-4.37,4.35-6.87,3.73,0,7.46,1.87,9.32,5,2.49,4.37,5.59,9.37,11.18,8.12-1.86,1.87-2.49,5-4.35,6.87h0Z"/><path class="cls-7" d="M1436.67,641.51c-6.21,0-9.94-5.62-13.67-10.62-1.24-1.25-3.73-3.12-6.83-2.5,1.24-2.5,1.86-5.62,3.73-6.24,2.49-.62,4.97,.62,7.46,1.87,3.11,3.12,4.35,7.49,8.08,9.99,1.86,1.25,3.73,.62,5.59,.62-1.86,1.87-2.49,5-4.35,6.87h0Z"/><path class="cls-45" d="M1311.17,577.2c-7.46-.62-10.56-7.49-14.91-12.49-1.24-1.25-3.73-.62-5.59-.62,0-3.12,3.11-4.37,4.35-6.87,3.73,0,7.46,1.87,9.32,5,3.11,3.75,5.59,8.74,11.18,8.12-1.86,1.87-3.11,4.37-4.35,6.87h0Z"/><path class="cls-24" d="M1334.67,826.66c4.35-5,9.94-5,16.15-4.37,2.49,0,4.97-1.25,6.83-4.37,0,2.5,3.11,5,1.86,7.49-2.49,5.62-9.32,5-15.53,4.37-3.11,0-4.35,2.5-6.21,4.37-1.24-2.5-2.49-5-3.11-7.49h0Z"/><path class="cls-9" d="M1254.52,852.89c-6.21,0-10.56-5-13.05-10.62-1.24-3.12-4.97-2.5-7.46-3.12,1.86-1.87,3.11-4.37,4.35-6.24,6.21,0,10.56,5,13.05,10.61,1.24,3.12,4.97,2.5,7.46,3.12-1.86,1.87-3.11,4.37-4.35,6.24h0Z"/><path class="cls-10" d="M1356.52,642.13c-7.46-.62-10.56-7.49-14.91-12.49-1.24-1.25-3.11-1.87-5.59-1.25,1.24-2.5,3.11-4.37,4.35-6.87,4.35,1.25,9.32,3.12,11.8,8.74,1.24,3.12,4.35,5.62,8.7,5-1.86,1.87-2.49,5-4.35,6.87h0Z"/><path class="cls-36" d="M1382.55,427.32c4.97-5,12.43-3.12,19.26-3.12,1.86,0,3.11-1.87,4.35-3.75,1.24,2.5,1.86,5,2.49,7.49-4.35,4.37-10.56,4.37-16.78,3.75-2.49-.62-4.97,.62-6.83,3.12-1.24-2.5-1.86-5-2.49-7.49h0Z"/><path class="cls-29" d="M1238.37,762.35c4.35-5,11.18-3.75,16.78-2.5,2.49,0,4.97-1.25,6.83-3.75,.62,2.5,1.24,5,1.86,7.49-4.97,5.62-12.43,2.5-18.64,3.12-1.86,0-3.11,1.87-4.35,3.75-1.24-2.5-1.86-5.62-2.49-8.12h0Z"/></g></g></g></g></svg>