<svg id="Layer_1" data-name="Layer 1" xmlns="http://www.w3.org/2000/svg" viewBox="0 0 3964.13 1221.01"><defs><style>.cls-1{fill:#33434f;}.cls-2{fill:#fff;}</style></defs><rect class="cls-1" width="3964.13" height="1221.01" rx="70.58"/><path class="cls-2" d="M363.68,1287.43a20.09,20.09,0,0,1-6.2-14.74V771.56a21.19,21.19,0,0,1,20.94-20.95H636q110.14,0,162.52,40.34t52.36,122.57q0,33.36-19.39,59.35t-42.67,37.62q31,12.42,52.37,43.83T862.49,1123q0,86.12-55.85,128.39t-162.91,42.28H378.42A20.08,20.08,0,0,1,363.68,1287.43Zm252.9-332.79q15.51,0,23.66-10.48a38.63,38.63,0,0,0,8.14-24.43,40.32,40.32,0,0,0-8.14-24.83q-8.15-10.85-23.66-10.86H551.42v70.6Zm7,205.57q17.84,0,26.76-11.64a42.23,42.23,0,0,0,8.92-26.37,40.13,40.13,0,0,0-9.69-26.38q-9.7-11.64-26-11.63H551.42v76Z" transform="translate(-18.43 -410.39)"/><path class="cls-2" d="M1010.65,1287.43a20.09,20.09,0,0,1-6.2-14.74V771.56a21.19,21.19,0,0,1,20.94-20.95h158.25a21.21,21.21,0,0,1,20.95,20.95v501.13a21.21,21.21,0,0,1-20.95,21H1025.39A20.06,20.06,0,0,1,1010.65,1287.43Z" transform="translate(-18.43 -410.39)"/><path class="cls-2" d="M1427.22,1247.87q-69-53.53-73.69-155.93-.78-20.94-.77-67.49,0-47.3.77-69,2.33-66.7,35.3-114.81t90.37-72.92q57.4-24.81,133.43-24.82t133.43,24.82q57.39,24.84,90.37,72.92t35.3,114.81q1.55,43.46,1.55,69t-1.55,67.49q-4.67,102.4-73.7,155.93t-185.4,53.52Q1496.26,1301.39,1427.22,1247.87Zm226.91-113.26q15.12-15.51,15.9-47.32,1.56-45,1.55-65.94,0-22.49-1.55-64.39-.77-31.8-16.29-47.32t-41.11-15.51q-25.61,0-41.12,15.51T1555.22,957q-.78,21-.77,64.39t.77,65.94q.77,31.82,15.91,47.32t41.5,15.51Q1639,1150.12,1654.13,1134.61Z" transform="translate(-18.43 -410.39)"/><path class="cls-2" d="M2141.69,1287.43a20.06,20.06,0,0,1-6.21-14.74V917.4H2006.71a21.21,21.21,0,0,1-21-20.94V771.56a21.21,21.21,0,0,1,21-20.95h454.58a21.21,21.21,0,0,1,20.95,20.95v124.9a21.21,21.21,0,0,1-20.95,20.94H2332.52v355.29a21.19,21.19,0,0,1-20.94,21H2156.42A20.06,20.06,0,0,1,2141.69,1287.43Z" transform="translate(-18.43 -410.39)"/><path class="cls-2" d="M2621.87,1287.43a20.09,20.09,0,0,1-6.2-14.74V771.56a21.19,21.19,0,0,1,20.94-20.95h398a21.19,21.19,0,0,1,20.94,20.95V880.94a21.17,21.17,0,0,1-20.94,20.94H2801.85v48.88H3017.5a21.19,21.19,0,0,1,20.95,20.94v100.85a21.21,21.21,0,0,1-20.95,21H2801.85v48.87h238.92a21.19,21.19,0,0,1,20.95,20.94v109.38a21.21,21.21,0,0,1-20.95,21H2636.61A20.08,20.08,0,0,1,2621.87,1287.43Z" transform="translate(-18.43 -410.39)"/><path class="cls-2" d="M3216.87,1287.43a20.06,20.06,0,0,1-6.21-14.74V771.56a21.21,21.21,0,0,1,20.94-20.95h391a21.19,21.19,0,0,1,20.94,20.95V889.47a21.19,21.19,0,0,1-20.94,20.95H3400.72v57.4h206.34a21.19,21.19,0,0,1,21,20.95v117.14a21.17,21.17,0,0,1-21,20.94H3400.72v145.84a21.21,21.21,0,0,1-20.95,21H3231.6A20.06,20.06,0,0,1,3216.87,1287.43Z" transform="translate(-18.43 -410.39)"/></svg>