<?xml version="1.0"?>
<svg xmlns="http://www.w3.org/2000/svg" xmlns:xlink="http://www.w3.org/1999/xlink" xmlns:svgjs="http://svgjs.com/svgjs" version="1.1" width="512" height="512" x="0" y="0" viewBox="0 0 512 512" style="enable-background:new 0 0 512 512" xml:space="preserve" class=""><g><g xmlns="http://www.w3.org/2000/svg"><path d="m209.952 256c0-4.143-3.357-7.5-7.5-7.5h-96.884l5.582-6.288c2.75-3.098 2.469-7.839-.629-10.588-3.1-2.752-7.839-2.469-10.588.629l-16.66 18.768c-2.522 2.841-2.522 7.118 0 9.959l16.66 18.768c2.744 3.092 7.485 3.384 10.588.629 3.098-2.749 3.379-7.49.629-10.588l-5.582-6.288h96.884c4.143-.001 7.5-3.358 7.5-7.501z" fill="#32424f" data-original="#000000" style="" class=""/><path d="m401.479 231.624c-3.098 2.749-3.379 7.49-.629 10.588l5.582 6.288h-96.885c-4.143 0-7.5 3.357-7.5 7.5s3.357 7.5 7.5 7.5h96.885l-5.582 6.288c-2.75 3.098-2.469 7.839.629 10.588 3.103 2.755 7.844 2.463 10.588-.629l16.66-18.768c2.522-2.841 2.522-7.118 0-9.959l-16.66-18.768c-2.749-3.095-7.488-3.379-10.588-.628z" fill="#32424f" data-original="#000000" style="" class=""/><path d="m502 256.008c0-12.788 2.116-18.749 4.567-25.651 2.547-7.171 5.433-15.298 5.433-30.671 0-15.374-2.886-23.503-5.433-30.675-2.45-6.903-4.567-12.864-4.567-25.655 0-7.009.665-14.697 1.976-22.852 1.522-9.459-1.719-19.043-8.67-25.638-6.954-6.597-16.699-9.331-26.067-7.311-13.398 2.888-27.155 5.55-40.89 7.914-4.082.703-6.821 4.582-6.119 8.664.703 4.081 4.574 6.827 8.664 6.119 13.938-2.399 27.902-5.103 41.505-8.033 4.588-.992 9.178.298 12.583 3.528s4.931 7.74 4.185 12.374c-1.438 8.939-2.166 17.43-2.166 25.233 0 15.374 2.886 23.503 5.433 30.675 2.45 6.903 4.567 12.864 4.567 25.655 0 12.788-2.116 18.749-4.567 25.651-2.547 7.171-5.433 15.298-5.433 30.671s2.886 23.501 5.433 30.672c2.45 6.903 4.567 12.864 4.567 25.653 0 12.788-2.117 18.749-4.567 25.651-2.547 7.171-5.433 15.298-5.433 30.67 0 7.798.729 16.284 2.166 25.224.745 4.633-.78 9.144-4.186 12.374-3.406 3.231-7.991 4.521-12.583 3.529-69.664-15.013-141.207-22.62-212.71-22.62-.798 0-1.609.001-2.408.003-71.339.171-144.618 7.923-217.806 23.042-4.609.954-9.205-.366-12.601-3.622-3.358-3.22-4.855-7.696-4.107-12.279 1.003-6.144 1.676-12.167 2.002-17.904.234-4.136-2.928-7.678-7.063-7.913-4.122-.223-7.679 2.928-7.913 7.063-.296 5.214-.911 10.711-1.83 16.339-1.531 9.391 1.658 18.932 8.531 25.521 5.467 5.241 12.696 8.088 20.124 8.087 1.96 0 3.934-.198 5.893-.603 72.202-14.915 144.474-22.563 214.806-22.731.792-.002 1.582-.003 2.373-.003 70.438 0 140.927 7.495 209.551 22.284 9.367 2.015 19.112-.717 26.066-7.312 6.951-6.595 10.192-16.18 8.671-25.638-1.311-8.153-1.976-15.839-1.976-22.842 0-12.788 2.116-18.748 4.567-25.65 2.547-7.171 5.433-15.298 5.433-30.671s-2.886-23.501-5.433-30.672c-2.451-6.9-4.568-12.861-4.568-25.65z" fill="#32424f" data-original="#000000" style="" class=""/><path d="m14.366 353.49c.739 0 1.492-.11 2.235-.342 3.954-1.234 6.16-5.439 4.927-9.394-.639-2.046-1.311-3.938-1.96-5.767-2.451-6.902-4.568-12.864-4.568-25.654 0-12.789 2.117-18.75 4.567-25.653 2.547-7.171 5.433-15.299 5.433-30.672s-2.886-23.5-5.433-30.671c-2.45-6.902-4.567-12.863-4.567-25.651 0-12.791 2.117-18.752 4.567-25.655 2.547-7.173 5.433-15.301 5.433-30.675 0-7.938-.752-16.571-2.235-25.66-.748-4.584.749-9.06 4.107-12.278 3.396-3.257 7.989-4.579 12.601-3.623 122.367 25.278 243.896 29.71 361.208 13.175 4.102-.578 6.958-4.372 6.38-8.474-.578-4.103-4.369-6.957-8.474-6.38-115.6 16.298-235.402 11.918-356.079-13.011-9.383-1.938-19.107.859-26.018 7.484-6.873 6.591-10.061 16.131-8.53 25.521 1.354 8.293 2.04 16.114 2.04 23.245 0 12.791-2.117 18.752-4.567 25.655-2.547 7.173-5.433 15.302-5.433 30.676 0 15.373 2.886 23.5 5.433 30.671 2.451 6.902 4.567 12.863 4.567 25.651 0 12.789-2.117 18.75-4.567 25.653-2.547 7.171-5.433 15.299-5.433 30.672 0 15.375 2.887 23.503 5.434 30.675.629 1.772 1.224 3.445 1.774 5.214 1.002 3.211 3.963 5.268 7.158 5.268z" fill="#32424f" data-original="#000000" style="" class=""/></g></g></svg>
