<?xml version="1.0"?>
<svg xmlns="http://www.w3.org/2000/svg" xmlns:xlink="http://www.w3.org/1999/xlink" xmlns:svgjs="http://svgjs.com/svgjs" version="1.1" width="512" height="512" x="0" y="0" viewBox="0 0 482.199 482.199" style="enable-background:new 0 0 512 512" xml:space="preserve" class=""><g>
<g xmlns="http://www.w3.org/2000/svg">
	<g>
		<path d="M482.133,411.02V115.34c0.088-0.78,0.088-1.567,0-2.347c0.045-0.568,0.045-1.139,0-1.707    c-0.369-0.61-0.797-1.182-1.28-1.707l-1.067-1.493h-1.493l-1.92-1.28c-11.885-4.336-23.99-8.039-36.267-11.093V46.006    c0-5.891-4.776-10.667-10.667-10.667c-73.773,2.435-142.314,38.712-185.813,98.347C199.312,72.662,128.746,36.192,53.333,35.34    c-5.891,0-10.667,4.776-10.667,10.667v48.427C30.38,97.451,18.272,101.155,6.4,105.526l-2.347,1.493H2.987    c-0.495,0.592-0.924,1.236-1.28,1.92v1.493c-0.045,0.568-0.045,1.139,0,1.707c-0.088,0.78-0.088,1.567,0,2.347v294.827    c-0.049,0.568-0.049,1.139,0,1.707c-0.636,0.498-1.209,1.071-1.707,1.707c0.34,0.76,0.77,1.476,1.28,2.133v1.493l1.707,1.28H4.48    H6.4h2.133h1.707h1.92c75.646-24.858,158.481-14.111,225.28,29.227h1.067h3.2h3.2h1.067c66.78-42.249,148.979-52.348,224-27.52    h1.92h1.707h2.133h1.92h1.28l1.92-1.493v-1.28c0.51-0.658,0.94-1.374,1.28-2.133c0.048-0.568,0.048-1.139,0-1.707    C482.182,412.159,482.182,411.588,482.133,411.02z M20.907,394.806V123.02c7.396-2.56,14.507-4.764,21.333-6.613v216.107    c-0.005,5.891,4.767,10.67,10.658,10.675c0.145,0,0.29-0.003,0.435-0.009l0.853,0.213c55.049,0.221,107.79,22.145,146.773,61.013    C143.495,382.121,80.416,378.757,20.907,394.806z M233.6,407.18c-41.792-50.851-103.019-81.813-168.747-85.333V57.1    c68.371,4.943,130.637,41.153,168.747,98.133V407.18z M254.933,407.393V155.02c38.175-56.701,100.171-92.845,168.32-98.133    l0.64,0.213v264.96C358.16,325.779,296.941,356.697,254.933,407.393z M466.56,394.806c-59.516-15.989-122.575-12.627-180.053,9.6    c39.146-39.043,92.126-61.048,147.413-61.227c5.891,0,10.667-4.776,10.667-10.667V116.406c7.253,1.991,14.578,4.267,21.973,6.827    V394.806z" fill="#32424f" data-original="#000000" style="" class=""/>
	</g>
</g>
<g xmlns="http://www.w3.org/2000/svg">
	<g>
		<path d="M206.376,262.534c-0.295-0.301-0.607-0.583-0.936-0.847c-24.517-22.995-54.347-39.559-86.827-48.213    c-5.891-1.473-11.861,2.109-13.333,8c-1.473,5.891,2.109,11.861,8,13.333c29.077,7.583,55.827,22.24,77.867,42.667    c4.125,4.205,10.879,4.27,15.084,0.145S210.501,266.739,206.376,262.534z" fill="#32424f" data-original="#000000" style="" class=""/>
	</g>
</g>
<g xmlns="http://www.w3.org/2000/svg">
	<g>
		<path d="M206.589,312.453c-0.295-0.301-0.607-0.583-0.936-0.847c-24.635-22.833-54.422-39.373-86.827-48.213    c-5.891-1.532-11.908,2.002-13.44,7.893s2.002,11.908,7.893,13.44c29.073,7.752,55.853,22.386,78.08,42.667    c4.125,4.205,10.879,4.27,15.084,0.145C210.65,323.412,210.714,316.659,206.589,312.453z" fill="#32424f" data-original="#000000" style="" class=""/>
	</g>
</g>
<g xmlns="http://www.w3.org/2000/svg">
	<g>
		<path d="M205.653,162.273c-24.572-23.032-54.481-39.6-87.04-48.213c-5.891-1.473-11.861,2.109-13.333,8    c-1.473,5.891,2.109,11.861,8,13.333c29.156,7.542,55.985,22.203,78.08,42.667c4.593,3.689,11.307,2.955,14.996-1.638    C209.739,172.208,209.438,166.13,205.653,162.273z" fill="#32424f" data-original="#000000" style="" class=""/>
	</g>
</g>
<g xmlns="http://www.w3.org/2000/svg">
	<g>
		<path d="M205.44,212.193c-24.501-23.016-54.337-39.584-86.827-48.213c-5.891-1.473-11.861,2.109-13.333,8    c-1.473,5.891,2.109,11.861,8,13.333c29.084,7.566,55.837,22.226,77.867,42.667c4.593,3.689,11.307,2.955,14.996-1.638    C209.526,222.128,209.224,216.05,205.44,212.193z" fill="#32424f" data-original="#000000" style="" class=""/>
	</g>
</g>
<g xmlns="http://www.w3.org/2000/svg">
	<g>
		<path d="M381.76,221.046c-1.473-5.891-7.442-9.473-13.333-8c-32.51,8.507-62.412,24.923-87.04,47.787    c-4.125,4.205-4.061,10.959,0.145,15.084c3.857,3.784,9.935,4.086,14.149,0.702l0.213,0.427    c22.045-20.419,48.793-35.075,77.867-42.667C379.651,232.907,383.233,226.937,381.76,221.046z" fill="#32424f" data-original="#000000" style="" class=""/>
	</g>
</g>
<g xmlns="http://www.w3.org/2000/svg">
	<g>
		<path d="M381.867,271.5c-1.532-5.891-7.549-9.425-13.44-7.893v-0.213c-32.422,8.91-62.209,25.524-86.827,48.427    c-4.125,4.205-4.061,10.959,0.145,15.084c3.857,3.784,9.935,4.086,14.149,0.702c22.232-20.274,49.01-34.907,78.08-42.667    C379.864,283.408,383.398,277.391,381.867,271.5z" fill="#32424f" data-original="#000000" style="" class=""/>
	</g>
</g>
<g xmlns="http://www.w3.org/2000/svg">
	<g>
		<path d="M381.76,122.06c-1.473-5.891-7.442-9.473-13.333-8c-32.517,8.49-62.422,24.909-87.04,47.787    c-4.36,3.962-4.682,10.708-0.719,15.068c2.04,2.245,4.94,3.515,7.973,3.492l0.213,0.427c2.607-0.033,5.111-1.02,7.04-2.773    c22.034-20.433,48.786-35.092,77.867-42.667C379.651,133.92,383.233,127.951,381.76,122.06z" fill="#32424f" data-original="#000000" style="" class=""/>
	</g>
</g>
<g xmlns="http://www.w3.org/2000/svg">
	<g>
		<path d="M381.973,171.553c-1.473-5.891-7.442-9.473-13.333-8c-32.52,8.482-62.427,24.901-87.04,47.787    c-4.359,3.962-4.682,10.708-0.719,15.068c2.04,2.245,4.94,3.515,7.973,3.492v0.427c2.68,0.02,5.27-0.97,7.253-2.773    c22.034-20.433,48.786-35.092,77.867-42.667C379.864,183.414,383.446,177.444,381.973,171.553z" fill="#32424f" data-original="#000000" style="" class=""/>
	</g>
</g>
<g xmlns="http://www.w3.org/2000/svg">
</g>
<g xmlns="http://www.w3.org/2000/svg">
</g>
<g xmlns="http://www.w3.org/2000/svg">
</g>
<g xmlns="http://www.w3.org/2000/svg">
</g>
<g xmlns="http://www.w3.org/2000/svg">
</g>
<g xmlns="http://www.w3.org/2000/svg">
</g>
<g xmlns="http://www.w3.org/2000/svg">
</g>
<g xmlns="http://www.w3.org/2000/svg">
</g>
<g xmlns="http://www.w3.org/2000/svg">
</g>
<g xmlns="http://www.w3.org/2000/svg">
</g>
<g xmlns="http://www.w3.org/2000/svg">
</g>
<g xmlns="http://www.w3.org/2000/svg">
</g>
<g xmlns="http://www.w3.org/2000/svg">
</g>
<g xmlns="http://www.w3.org/2000/svg">
</g>
<g xmlns="http://www.w3.org/2000/svg">
</g>
</g></svg>
