<?xml version="1.0"?>
<svg xmlns="http://www.w3.org/2000/svg" xmlns:xlink="http://www.w3.org/1999/xlink" xmlns:svgjs="http://svgjs.com/svgjs" version="1.1" width="512" height="512" x="0" y="0" viewBox="0 0 512 512" style="enable-background:new 0 0 512 512" xml:space="preserve" class=""><g><path xmlns="http://www.w3.org/2000/svg" d="m256 0c-140.465 0-256 113.76-256 255 0 140.874 114.957 257 256 257 140.885 0 256-115.96 256-257 0-140.607-114.841-255-256-255zm-15 75c0-8.49.474-16.957 1.414-25.349l215.343 250.164c-120.39-4.846-216.757-103.907-216.757-224.815zm15 407c-124.617 0-226-101.832-226-227 0-109.89 79.544-201.618 184.315-221.148-2.198 13.556-3.315 27.325-3.315 41.148 0 7.065.303 14.059.872 20.98-6.603 1.826-13.102 4.054-19.427 6.683-7.649 3.18-11.272 11.959-8.092 19.609 3.191 7.676 11.983 11.262 19.609 8.093 3.985-1.657 8.056-3.114 12.182-4.383 17.787 86.967 80.151 157.977 162.198 188.243-5.619 11.48-12.874 22.144-21.689 31.825-5.577 6.125-5.133 15.613.993 21.19 6.127 5.578 15.614 5.132 21.19-.993 11.861-13.026 21.415-27.532 28.531-43.25 19.811 4.727 40.418 7.172 61.951 6.974-30.9 88.439-114.848 152.029-213.318 152.029zm224.583-201.653-215.325-250.143c120.339 4.853 216.742 103.819 216.742 224.796 0 8.568-.492 17.022-1.417 25.347z" fill="#32424f" data-original="#000000" style="" class=""/><path xmlns="http://www.w3.org/2000/svg" d="m110.177 213.323c7.709 3.124 16.437-.622 19.536-8.268 6.782-16.735 16.756-31.787 29.644-44.736 5.844-5.872 5.822-15.369-.05-21.213-5.872-5.845-15.37-5.821-21.213.05-15.721 15.795-27.895 34.176-36.185 54.632-3.112 7.677.59 16.424 8.268 19.535z" fill="#32424f" data-original="#000000" style="" class=""/><path xmlns="http://www.w3.org/2000/svg" d="m313.428 378.068c-16.465 7.785-33.975 12.1-52.042 12.825-8.277.332-14.719 7.312-14.386 15.589.324 8.073 6.97 14.399 14.978 14.399.203 0 .407-.004.612-.013 22.115-.887 43.534-6.163 63.663-15.679 7.489-3.541 10.69-12.482 7.149-19.972-3.542-7.489-12.484-10.69-19.974-7.149z" fill="#32424f" data-original="#000000" style="" class=""/><path xmlns="http://www.w3.org/2000/svg" d="m120.027 257.719c-.166-8.282-6.979-14.853-15.298-14.697-8.282.166-14.862 7.015-14.696 15.298.445 22.185 5.277 43.707 14.364 63.967 3.406 7.595 12.302 10.923 19.825 7.548 7.559-3.39 10.938-12.266 7.548-19.825-7.428-16.563-11.379-34.157-11.743-52.291z" fill="#32424f" data-original="#000000" style="" class=""/><path xmlns="http://www.w3.org/2000/svg" d="m208.47 382.32c-16.915-6.4-32.229-16-45.52-28.535-6.027-5.684-15.521-5.406-21.204.62-5.684 6.027-5.406 15.52.62 21.204 16.184 15.264 34.853 26.962 55.487 34.769 7.747 2.932 16.406-.974 19.337-8.721 2.933-7.748-.972-16.406-8.72-19.337z" fill="#32424f" data-original="#000000" style="" class=""/></g></svg>
