<svg id="Layer_1" data-name="Layer 1" xmlns="http://www.w3.org/2000/svg" viewBox="0 0 443.65 512"><defs><style>.cls-1{fill:#32424f;}</style></defs><path class="cls-1" d="M264.5,42.67H245.86a25.44,25.44,0,0,0-48.05,0H179.17a8.53,8.53,0,1,0,0,17.06h18.64a25.44,25.44,0,0,0,48.05,0H264.5a8.53,8.53,0,0,0,0-17.06ZM221.83,59.73a8.53,8.53,0,1,1,8.53-8.53A8.53,8.53,0,0,1,221.83,59.73Z" transform="translate(-0.01)"/><path class="cls-1" d="M25.35,509.44a22.07,22.07,0,0,0,2.93-.19l97-5.63A528.66,528.66,0,0,0,221.83,512a528.76,528.76,0,0,0,96.54-8.37l96.42,5.57a25.51,25.51,0,0,0,20.95-6.89,25.07,25.07,0,0,0,7.87-20l-8.45-337.49V25.6A25.63,25.63,0,0,0,409.56,0H34.1A25.64,25.64,0,0,0,8.5,25.6V144.85l-8.42,337a25.67,25.67,0,0,0,25.27,27.56Zm1.35-17.18a8.41,8.41,0,0,1-7-2.31,8.61,8.61,0,0,1-2.57-7.19l6.39-255.43L68.26,470.24a24.75,24.75,0,0,0,14,18.79Zm58.6-22.93a8.93,8.93,0,0,0-.14-1.55L25.57,144.29V102.4H418.1v41.89L358.51,467.78a8.4,8.4,0,0,0-.15,1.51c-1.6,8.7-51.24,25.64-136.53,25.64S86.9,478,85.3,469.33ZM424,490a8.83,8.83,0,0,1-7.6,2.26L361.42,489a24.7,24.7,0,0,0,14-18.78l44.75-242.92,6.42,255.9A8.28,8.28,0,0,1,424,490ZM25.57,25.6a8.53,8.53,0,0,1,8.53-8.53H409.56a8.54,8.54,0,0,1,8.54,8.53V85.33H25.57Z" transform="translate(-0.01)"/><path class="cls-1" d="M68.23,119.46H51.17a8.54,8.54,0,0,0,0,17.07H68.23a8.54,8.54,0,1,0,0-17.07Z" transform="translate(-0.01)"/><path class="cls-1" d="M102.37,136.53H392.49a8.54,8.54,0,1,0,0-17.07H102.37a8.54,8.54,0,1,0,0,17.07Z" transform="translate(-0.01)"/><path class="cls-1" d="M221.83,162.13A136.53,136.53,0,1,0,358.36,298.66,136.53,136.53,0,0,0,221.83,162.13Zm0,256A119.47,119.47,0,1,1,341.3,298.66,119.46,119.46,0,0,1,221.83,418.13Z" transform="translate(-0.01)"/><path class="cls-1" d="M221.83,196.26a102.4,102.4,0,1,0,102.4,102.4A102.41,102.41,0,0,0,221.83,196.26Zm0,187.73a85.33,85.33,0,1,1,85.33-85.33A85.33,85.33,0,0,1,221.83,384Z" transform="translate(-0.01)"/></svg>